<svg width="13" height="10" viewBox="0 0 13 10" fill="none" xmlns="http://www.w3.org/2000/svg">
<path d="M0.0617194 9.58904C0.201617 9.21722 0.451434 8.86497 0.81117 8.53229C1.19089 8.19961 1.63057 7.8865 2.1302 7.59295C2.64982 7.29941 3.20941 7.03522 3.80897 6.80039C4.40853 6.56556 4.9981 6.36008 5.57767 6.18395C6.15725 5.98826 6.70684 5.8317 7.22646 5.71429C7.76607 5.5773 8.21574 5.47945 8.57547 5.42074C8.57547 5.40117 8.57547 5.37182 8.57547 5.33268C8.59546 5.27397 8.60545 5.23483 8.60545 5.21526C8.60545 4.96086 8.45556 4.75538 8.15578 4.59883C7.856 4.44227 7.61618 4.33464 7.43631 4.27593C7.1765 4.17808 6.71684 4.02153 6.05732 3.80626C5.3978 3.591 4.68833 3.36595 3.92888 3.13112C3.18943 2.87671 2.48994 2.64188 1.83042 2.42661C1.17091 2.21135 0.711243 2.06458 0.451434 1.9863C0.131668 1.59491 -0.0182219 1.26223 0.00176341 0.988258C0.0417341 0.694716 0.181631 0.469667 0.421456 0.313112C0.66128 0.156556 0.96106 0.0587084 1.3208 0.0195695C1.70052 -0.0195695 2.07025 0 2.42998 0.0782779C2.8097 0.136986 3.13946 0.264188 3.41926 0.459883C3.69905 0.655577 3.87892 0.90998 3.95886 1.22309L10.9138 3.86497C11.7332 4.19765 12.1429 4.70646 12.1429 5.39139C12.1429 5.7045 12.0329 5.93933 11.8131 6.09589C11.6132 6.25245 11.3634 6.36008 11.0636 6.41879C10.7639 6.4775 10.4541 6.51663 10.1343 6.5362C9.83455 6.5362 9.58473 6.5362 9.38488 6.5362L1.23086 9.97065C1.19089 9.97065 1.15092 9.98043 1.11095 10C1.09096 10 1.06099 10 1.02102 10C0.841148 10 0.671272 9.97065 0.51139 9.91194C0.371492 9.83366 0.221602 9.72603 0.0617194 9.58904Z" fill="#C4C4C4"/>
</svg>
