<svg width="13" height="10" viewBox="0 0 13 10" fill="none" xmlns="http://www.w3.org/2000/svg">
<path d="M12.0813 9.58904C11.9414 9.21722 11.6916 8.86497 11.3319 8.53229C10.9522 8.19961 10.5125 7.8865 10.0129 7.59295C9.49325 7.29941 8.93366 7.03522 8.3341 6.80039C7.73454 6.56556 7.14497 6.36008 6.56539 6.18395C5.98582 5.98826 5.43622 5.8317 4.9166 5.71429C4.377 5.5773 3.92733 5.47945 3.56759 5.42074C3.56759 5.40117 3.56759 5.37182 3.56759 5.33268C3.54761 5.27397 3.53761 5.23483 3.53761 5.21526C3.53761 4.96086 3.6875 4.75538 3.98728 4.59883C4.28707 4.44227 4.52689 4.33464 4.70676 4.27593C4.96657 4.17808 5.42623 4.02153 6.08575 3.80626C6.74526 3.591 7.45474 3.36595 8.21418 3.13112C8.95364 2.87671 9.65313 2.64188 10.3126 2.42661C10.9722 2.21135 11.4318 2.06458 11.6916 1.9863C12.0114 1.59491 12.1613 1.26223 12.1413 0.988258C12.1013 0.694716 11.9614 0.469667 11.7216 0.313112C11.4818 0.156556 11.182 0.0587084 10.8223 0.0195695C10.4425 -0.0195695 10.0728 0 9.71308 0.0782779C9.33336 0.136986 9.0036 0.264188 8.72381 0.459883C8.44402 0.655577 8.26415 0.90998 8.18421 1.22309L1.22931 3.86497C0.409909 4.19765 0.00020932 4.70646 0.00020932 5.39139C0.00020932 5.7045 0.110129 5.93933 0.329967 6.09589C0.529821 6.25245 0.779638 6.36008 1.07942 6.41879C1.3792 6.4775 1.68897 6.51663 2.00874 6.5362C2.30852 6.5362 2.55833 6.5362 2.75819 6.5362L10.9122 9.97065C10.9522 9.97065 10.9921 9.98043 11.0321 10C11.0521 10 11.0821 10 11.1221 10C11.3019 10 11.4718 9.97065 11.6317 9.91194C11.7716 9.83366 11.9215 9.72603 12.0813 9.58904Z" fill="#C4C4C4"/>
</svg>
