<svg width="42" height="42" viewBox="0 0 42 42" fill="none" xmlns="http://www.w3.org/2000/svg">
<circle cx="21" cy="21" r="20" stroke="black" stroke-width="2"/>
<path d="M27.4247 28.9136C26.9041 28.7177 26.411 28.368 25.9452 27.8644C25.4795 27.3328 25.0411 26.7172 24.6301 26.0177C24.2192 25.2903 23.8493 24.5068 23.5205 23.6674C23.1918 22.8281 22.9041 22.0027 22.6575 21.1913C22.3836 20.3799 22.1644 19.6104 22 18.883C21.8082 18.1275 21.6712 17.498 21.589 16.9943C21.5616 16.9943 21.5205 16.9943 21.4658 16.9943C21.3836 16.9664 21.3288 16.9524 21.3014 16.9524C20.9452 16.9524 20.6575 17.1622 20.4384 17.5819C20.2192 18.0016 20.0685 18.3374 19.9863 18.5892C19.8493 18.9529 19.6301 19.5964 19.3288 20.5198C19.0274 21.4431 18.7123 22.4363 18.3836 23.4996C18.0274 24.5348 17.6986 25.5141 17.3973 26.4374C17.0959 27.3607 16.8904 28.0043 16.7808 28.368C16.2329 28.8157 15.7671 29.0255 15.3836 28.9975C14.9726 28.9416 14.6575 28.7457 14.4384 28.41C14.2192 28.0742 14.0822 27.6545 14.0274 27.1509C13.9726 26.6193 14 26.1017 14.1096 25.598C14.1918 25.0664 14.3699 24.6048 14.6438 24.213C14.9178 23.8213 15.274 23.5695 15.7123 23.4576L19.411 13.7207C19.8767 12.5736 20.589 12 21.5479 12C21.9863 12 22.3151 12.1539 22.5342 12.4617C22.7534 12.7415 22.9041 13.0912 22.9863 13.5109C23.0685 13.9306 23.1233 14.3643 23.1507 14.8119C23.1507 15.2316 23.1507 15.5814 23.1507 15.8612L27.9589 27.2768C27.9589 27.3328 27.9726 27.3887 28 27.4447C28 27.4726 28 27.5146 28 27.5706C28 27.8224 27.9589 28.0602 27.8767 28.2841C27.7671 28.4799 27.6164 28.6898 27.4247 28.9136Z" fill="black"/>
</svg>
