<svg width="193" height="37" viewBox="0 0 193 37" fill="none" xmlns="http://www.w3.org/2000/svg">
<path d="M29.8672 18.6641C29.8672 18.5703 29.875 18.4219 29.8906 18.2188C29.9062 18.0156 29.9141 17.8984 29.9141 17.8672C30.2266 16.6016 30.4844 15.5156 30.6875 14.6094C30.9062 13.7031 31.0859 12.9375 31.2266 12.3125C31.3672 11.6875 31.4766 11.1875 31.5547 10.8125C31.6328 10.4375 31.6875 10.1484 31.7188 9.94531C31.75 9.72656 31.7656 9.57812 31.7656 9.5C31.7812 9.40625 31.7891 9.33594 31.7891 9.28906C31.7891 9.19531 31.7891 9.03125 31.7891 8.79688C31.8047 8.5625 31.7969 8.32812 31.7656 8.09375C31.7344 7.84375 31.6719 7.63281 31.5781 7.46094C31.5 7.27344 31.3594 7.17969 31.1562 7.17969C30.9531 7.17969 30.7812 7.25 30.6406 7.39062C30.5156 7.51563 30.3906 7.64844 30.2656 7.78906C30.1406 7.91406 30 8.02344 29.8438 8.11719C29.7031 8.21094 29.5234 8.21875 29.3047 8.14062C29.5234 7.48438 29.7969 7.01562 30.125 6.73438C30.4688 6.45312 30.9688 6.3125 31.625 6.3125C32.0156 6.3125 32.3047 6.39063 32.4922 6.54688C32.6953 6.6875 32.8281 6.88281 32.8906 7.13281C32.9688 7.36719 33.0078 7.64062 33.0078 7.95312C33.0078 8.26562 33.0078 8.58594 33.0078 8.91406C33.0078 9.50781 32.9531 10.0938 32.8438 10.6719C32.75 11.25 32.6406 11.8281 32.5156 12.4062C32.3906 12.9844 32.2734 13.5625 32.1641 14.1406C32.0703 14.7188 32.0234 15.3047 32.0234 15.8984C32.0234 15.9297 32.0234 16.0078 32.0234 16.1328C32.0391 16.2422 32.0469 16.3125 32.0469 16.3438L32.3516 16.0391C33.6328 14.2109 34.6562 12.7266 35.4219 11.5859C36.2031 10.4453 36.8203 9.55469 37.2734 8.91406C37.7266 8.25781 38.0781 7.8125 38.3281 7.57812C38.5781 7.34375 38.8125 7.22656 39.0312 7.22656C39.2344 7.22656 39.3906 7.28125 39.5 7.39062C39.625 7.5 39.7188 7.63281 39.7812 7.78906C39.8438 7.94531 39.8828 8.11719 39.8984 8.30469C39.9297 8.47656 39.9453 8.63281 39.9453 8.77344V16.0391H40.25L48.4297 3.59375C48.8516 2.96875 49.2891 2.5625 49.7422 2.375C50.1953 2.17188 50.7734 2.17188 51.4766 2.375L49.0625 4.8125C47.75 6.82812 46.6406 8.57812 45.7344 10.0625C44.8438 11.5312 44.0938 12.7891 43.4844 13.8359C42.8906 14.8672 42.4062 15.7109 42.0312 16.3672C41.6719 17.0078 41.3672 17.5156 41.1172 17.8906C40.8672 18.25 40.6484 18.5 40.4609 18.6406C40.2734 18.7656 40.0547 18.8281 39.8047 18.8281C39.3828 18.8281 39.0703 18.6953 38.8672 18.4297C38.6797 18.1641 38.5469 17.8516 38.4688 17.4922C38.4062 17.1172 38.375 16.7344 38.375 16.3438C38.3906 15.9531 38.3984 15.6328 38.3984 15.3828C38.3984 14.8203 38.3984 14.3125 38.3984 13.8594C38.4141 13.3906 38.4297 12.9297 38.4453 12.4766C38.4766 12.0234 38.5078 11.5547 38.5391 11.0703C38.5859 10.5703 38.6484 10 38.7266 9.35938C37.3203 11.5 36.1641 13.2344 35.2578 14.5625C34.3672 15.8906 33.6406 16.9219 33.0781 17.6562C32.5156 18.3906 32.0703 18.8906 31.7422 19.1562C31.4297 19.4062 31.1406 19.5312 30.875 19.5312C30.4531 19.5312 30.1797 19.4688 30.0547 19.3438C29.9297 19.2031 29.8672 18.9766 29.8672 18.6641ZM43.8828 27.0781C44.3828 26.2656 44.9609 25.5391 45.6172 24.8984C46.2734 24.2734 46.9453 23.6797 47.6328 23.1172C48.3359 22.5547 49.0312 22.0078 49.7188 21.4766C50.4062 20.9453 51.0391 20.375 51.6172 19.7656C52.2109 19.1562 52.7188 18.4844 53.1406 17.75C53.5625 17 53.8516 16.1328 54.0078 15.1484C54.0078 15.1172 54 15.0703 53.9844 15.0078C53.9844 14.9297 53.9844 14.875 53.9844 14.8438C53.625 15.2656 53.1875 15.7422 52.6719 16.2734C52.1719 16.8047 51.625 17.3047 51.0312 17.7734C50.4531 18.2422 49.8438 18.6328 49.2031 18.9453C48.5625 19.2578 47.9375 19.4141 47.3281 19.4141C47.1719 19.4141 46.9688 19.4062 46.7188 19.3906C46.4844 19.3594 46.25 19.3047 46.0156 19.2266C45.7812 19.1484 45.5781 19.0391 45.4062 18.8984C45.2344 18.7578 45.1484 18.5703 45.1484 18.3359C45.1484 18.1328 45.2031 17.8203 45.3125 17.3984C45.4219 16.9766 45.5703 16.5078 45.7578 15.9922C45.9453 15.4766 46.1562 14.9531 46.3906 14.4219C46.625 13.8906 46.875 13.4062 47.1406 12.9688C47.4062 12.5312 47.6641 12.1719 47.9141 11.8906C48.1797 11.6094 48.4219 11.4688 48.6406 11.4688C48.8594 11.4688 49.0469 11.5156 49.2031 11.6094C49.3594 11.7031 49.4375 11.8594 49.4375 12.0781C49.4375 12.4688 49.2969 12.8594 49.0156 13.25C48.7344 13.6406 48.4297 14.0625 48.1016 14.5156C47.7734 14.9531 47.4688 15.4297 47.1875 15.9453C46.9062 16.4609 46.7656 17.0469 46.7656 17.7031C47.7969 17.7031 48.7266 17.4922 49.5547 17.0703C50.3828 16.6328 51.1328 16.0938 51.8047 15.4531C52.4766 14.8125 53.0703 14.1172 53.5859 13.3672C54.1016 12.6172 54.5547 11.9219 54.9453 11.2812C55.3516 10.6406 55.6953 10.1094 55.9766 9.6875C56.2734 9.25 56.5234 9.03125 56.7266 9.03125C57.0234 9.03125 57.1953 9.125 57.2422 9.3125C57.3047 9.48438 57.3359 9.70312 57.3359 9.96875C57.1953 10.4531 57 11.0234 56.75 11.6797C56.5 12.3203 56.2422 13 55.9766 13.7188C55.7266 14.4219 55.4922 15.125 55.2734 15.8281C55.0703 16.5312 54.9375 17.1719 54.875 17.75C54.875 17.7656 54.875 17.7891 54.875 17.8203C54.8906 17.8516 54.8984 17.875 54.8984 17.8906C55.1797 17.7969 55.4453 17.6328 55.6953 17.3984C55.9453 17.1641 56.1875 16.9297 56.4219 16.6953C56.6719 16.4453 56.9219 16.2266 57.1719 16.0391C57.4219 15.8359 57.6797 15.7344 57.9453 15.7344C57.9609 15.7344 58.0156 15.8438 58.1094 16.0625C58.2188 16.2812 58.2188 16.5469 58.1094 16.8594C57.9688 16.9688 57.7109 17.1562 57.3359 17.4219C56.9766 17.6875 56.5938 17.9688 56.1875 18.2656C55.7812 18.5469 55.3984 18.8281 55.0391 19.1094C54.6797 19.375 54.4297 19.5781 54.2891 19.7188C54.0703 19.9375 53.8438 20.25 53.6094 20.6562C53.375 21.0625 53.1406 21.5156 52.9062 22.0156C52.6719 22.5312 52.4375 23.0703 52.2031 23.6328C51.9844 24.1953 51.7656 24.7422 51.5469 25.2734C51.3281 25.8203 51.1094 26.3203 50.8906 26.7734C50.6875 27.2422 50.5 27.625 50.3281 27.9219C50.25 28.0469 50.0859 28.2891 49.8359 28.6484C49.6016 29.0234 49.3359 29.4219 49.0391 29.8438C48.7578 30.2656 48.4766 30.6641 48.1953 31.0391C47.9297 31.4297 47.7266 31.7031 47.5859 31.8594C47.5234 31.9375 47.3516 32.1172 47.0703 32.3984C46.7891 32.6953 46.4688 33.0156 46.1094 33.3594C45.7656 33.7188 45.4219 34.0703 45.0781 34.4141C44.7188 34.7578 44.4453 35.0156 44.2578 35.1875C44.0703 35.2969 43.8203 35.4297 43.5078 35.5859C43.1953 35.7578 42.875 35.8984 42.5469 36.0078C42.2031 36.1172 41.875 36.1875 41.5625 36.2188C41.2344 36.25 40.9688 36.1797 40.7656 36.0078C40.5625 35.8516 40.4453 35.5781 40.4141 35.1875C40.3672 34.8125 40.4531 34.2734 40.6719 33.5703C40.875 32.8828 41.2344 32.0078 41.75 30.9453C42.2656 29.8828 42.9766 28.5938 43.8828 27.0781ZM51.2422 22.0391C51.2109 22.0391 51.1562 22.0469 51.0781 22.0625C51.0156 22.0938 50.9688 22.1172 50.9375 22.1328C50.9062 22.1641 50.8359 22.2188 50.7266 22.2969C50.6172 22.375 50.4922 22.4609 50.3516 22.5547C50.2266 22.6484 50.1016 22.7422 49.9766 22.8359C49.8672 22.9297 49.7891 23 49.7422 23.0469C49.3047 23.3594 48.8047 23.7969 48.2422 24.3594C47.6797 24.9375 47.0938 25.5703 46.4844 26.2578C45.8906 26.9609 45.3047 27.6953 44.7266 28.4609C44.1484 29.2422 43.6328 29.9844 43.1797 30.6875C42.7109 31.4062 42.3359 32.0625 42.0547 32.6562C41.7734 33.25 41.625 33.7266 41.6094 34.0859C41.5938 34.4453 41.7422 34.6562 42.0547 34.7188C42.3672 34.7812 42.8984 34.6328 43.6484 34.2734C43.8047 34.1328 44.0312 33.9219 44.3281 33.6406C44.6094 33.375 44.8906 33.0938 45.1719 32.7969C45.4688 32.5156 45.7344 32.25 45.9688 32C46.2031 31.7656 46.3438 31.6172 46.3906 31.5547C46.4688 31.4453 46.5938 31.2734 46.7656 31.0391C46.9375 30.8047 47.125 30.5391 47.3281 30.2422C47.5312 29.9453 47.7422 29.6328 47.9609 29.3047C48.1797 28.9766 48.3828 28.6562 48.5703 28.3438C48.7734 28.0469 48.9453 27.7812 49.0859 27.5469C49.2422 27.3125 49.3516 27.1328 49.4141 27.0078C49.5547 26.7578 49.7266 26.3984 49.9297 25.9297C50.1484 25.4766 50.3516 25 50.5391 24.5C50.7266 24.0156 50.8906 23.5469 51.0312 23.0938C51.1719 22.6406 51.2422 22.2891 51.2422 22.0391ZM57.9453 17.3984C57.9453 17.1016 57.9844 16.8438 58.0625 16.625C58.1562 16.4062 58.3828 16.2969 58.7422 16.2969C58.7734 16.2969 58.8438 16.3047 58.9531 16.3203C59.0781 16.3203 59.1641 16.3281 59.2109 16.3438C59.1953 17.0781 59.3125 17.6328 59.5625 18.0078C59.8125 18.3672 60.2812 18.5469 60.9688 18.5469C61.5312 18.5469 62.0859 18.4609 62.6328 18.2891C63.1797 18.1172 63.6719 17.8672 64.1094 17.5391C64.5625 17.1953 64.9219 16.7812 65.1875 16.2969C65.4688 15.8125 65.6094 15.2656 65.6094 14.6562C65.6094 14.2812 65.4766 14.0156 65.2109 13.8594C64.9609 13.7031 64.6797 13.5781 64.3672 13.4844C64.0547 13.3906 63.7656 13.2891 63.5 13.1797C63.25 13.0547 63.125 12.8438 63.125 12.5469C63.125 12.1875 63.3438 11.8438 63.7812 11.5156C64.2188 11.1875 64.7344 10.8984 65.3281 10.6484C65.9219 10.3828 66.5078 10.1797 67.0859 10.0391C67.6797 9.88281 68.1328 9.80469 68.4453 9.80469C68.4453 10.2578 68.3438 10.5781 68.1406 10.7656C67.9531 10.9531 67.7188 11.1016 67.4375 11.2109C67.1562 11.3203 66.8672 11.4297 66.5703 11.5391C66.2891 11.6328 66.0547 11.8203 65.8672 12.1016C66.1172 12.3047 66.3203 12.4922 66.4766 12.6641C66.6484 12.8203 66.7812 12.9922 66.875 13.1797C66.9688 13.3672 67.0312 13.5781 67.0625 13.8125C67.0938 14.0312 67.1094 14.2969 67.1094 14.6094C67.1094 15.4219 66.9297 16.1641 66.5703 16.8359C66.2266 17.4922 65.7734 18.0625 65.2109 18.5469C64.6484 19.0156 64.0078 19.3828 63.2891 19.6484C62.5703 19.8984 61.8359 20.0234 61.0859 20.0234C60.6797 20.0234 60.2812 19.9766 59.8906 19.8828C59.5156 19.7734 59.1797 19.6094 58.8828 19.3906C58.6016 19.1719 58.375 18.8984 58.2031 18.5703C58.0312 18.2422 57.9453 17.8516 57.9453 17.3984ZM66.4297 4.0625C66.6953 4.07812 66.8125 4.21094 66.7812 4.46094C66.75 4.69531 66.6328 4.98438 66.4297 5.32812C66.2422 5.65625 66 6.00781 65.7031 6.38281C65.4062 6.75781 65.1094 7.08594 64.8125 7.36719C64.5156 7.63281 64.25 7.82031 64.0156 7.92969C63.7969 8.03906 63.6719 8 63.6406 7.8125C63.7031 7.65625 63.8438 7.39062 64.0625 7.01562C64.2812 6.64062 64.5312 6.25781 64.8125 5.86719C65.0938 5.46094 65.375 5.08594 65.6562 4.74219C65.9531 4.39844 66.2109 4.17187 66.4297 4.0625ZM69.1953 18.4766C69.2578 17.8359 69.4297 17.25 69.7109 16.7188C70.0078 16.1719 70.3516 15.6562 70.7422 15.1719C71.1484 14.6719 71.5625 14.2031 71.9844 13.7656C72.4219 13.3125 72.8125 12.8594 73.1562 12.4062C73.4219 12.4062 73.5938 12.4688 73.6719 12.5938C73.7656 12.7031 73.8125 12.8438 73.8125 13.0156C73.6875 13.1562 73.4922 13.4141 73.2266 13.7891C72.9609 14.1484 72.6875 14.5391 72.4062 14.9609C72.1406 15.3828 71.8984 15.7812 71.6797 16.1562C71.4766 16.5312 71.3594 16.7969 71.3281 16.9531C71.2031 17.4219 71.2031 17.7188 71.3281 17.8438C71.4688 17.9531 71.6875 17.9531 71.9844 17.8438C72.2969 17.7188 72.6641 17.5078 73.0859 17.2109C73.5078 16.8984 73.9375 16.5547 74.375 16.1797C74.8281 15.8047 75.2656 15.4141 75.6875 15.0078C76.1094 14.6016 76.4766 14.2422 76.7891 13.9297H77.8203C77.8203 14.1953 77.7812 14.4531 77.7031 14.7031C77.625 14.9375 77.5391 15.1719 77.4453 15.4062C77.3516 15.6406 77.2656 15.875 77.1875 16.1094C77.1094 16.3438 77.0703 16.5859 77.0703 16.8359C77.0703 17.1953 77.1797 17.4141 77.3984 17.4922C77.6328 17.5703 77.8984 17.6094 78.1953 17.6094C78.6016 17.6094 79.0234 17.5312 79.4609 17.375C79.9141 17.2031 80.3281 16.9766 80.7031 16.6953C81.0781 16.3984 81.3828 16.0625 81.6172 15.6875C81.8672 15.2969 81.9922 14.875 81.9922 14.4219C81.9922 14.0156 81.9297 13.6484 81.8047 13.3203C81.6953 12.9766 81.6406 12.6016 81.6406 12.1953C81.6406 11.7109 81.9062 11.4688 82.4375 11.4688C82.6719 11.4688 82.875 11.5703 83.0469 11.7734C83.2188 11.9766 83.3594 12.2188 83.4688 12.5C83.5938 12.7812 83.6797 13.0703 83.7266 13.3672C83.7891 13.6641 83.8203 13.9062 83.8203 14.0938C83.8203 14.9062 83.625 15.625 83.2344 16.25C82.8438 16.875 82.3438 17.3984 81.7344 17.8203C81.125 18.2422 80.4453 18.5625 79.6953 18.7812C78.9609 19 78.2422 19.1094 77.5391 19.1094C76.9453 19.1094 76.4766 18.8984 76.1328 18.4766C75.7891 18.0391 75.6094 17.5312 75.5938 16.9531C75.1406 17.0938 74.7266 17.3359 74.3516 17.6797C73.9766 18.0078 73.6016 18.3516 73.2266 18.7109C72.8516 19.0547 72.4609 19.3594 72.0547 19.625C71.6484 19.8906 71.2031 20.0234 70.7188 20.0234C70.5938 20.0234 70.4375 19.9688 70.25 19.8594C70.0781 19.75 69.9062 19.6172 69.7344 19.4609C69.5781 19.3047 69.4453 19.1406 69.3359 18.9688C69.2266 18.7812 69.1797 18.6172 69.1953 18.4766ZM84.5234 18.4766C84.5234 18.2578 84.5469 18.0703 84.5938 17.9141C84.6406 17.7422 84.7266 17.5234 84.8516 17.2578C84.9609 17.1016 85.1562 16.8047 85.4375 16.3672C85.7344 15.9297 86.0391 15.4688 86.3516 14.9844C86.6797 14.5 86.9844 14.0469 87.2656 13.625C87.5625 13.1875 87.7656 12.8828 87.875 12.7109C88.0156 12.5078 88.125 12.3984 88.2031 12.3828C88.2812 12.3672 88.4297 12.3594 88.6484 12.3594C88.7891 12.3594 88.9375 12.3672 89.0938 12.3828C89.2656 12.3984 89.375 12.5078 89.4219 12.7109C89.2031 13.2422 88.9062 13.75 88.5312 14.2344C88.1719 14.7031 87.8125 15.1719 87.4531 15.6406C87.1094 16.1094 86.8047 16.5938 86.5391 17.0938C86.2734 17.5781 86.1406 18.1016 86.1406 18.6641C86.2031 18.6641 86.2969 18.6719 86.4219 18.6875C86.5625 18.7031 86.7109 18.7188 86.8672 18.7344C87.0234 18.75 87.1641 18.7656 87.2891 18.7812C87.4297 18.7969 87.5312 18.7969 87.5938 18.7812C87.6875 18.7656 87.8438 18.7344 88.0625 18.6875C88.2969 18.625 88.5391 18.5625 88.7891 18.5C89.0547 18.4375 89.3047 18.375 89.5391 18.3125C89.7734 18.25 89.9375 18.2031 90.0312 18.1719C90.0312 18.2031 90.0312 18.2578 90.0312 18.3359C90.0469 18.3984 90.0547 18.4453 90.0547 18.4766C90.0547 18.7891 89.9062 19.0469 89.6094 19.25C89.3281 19.4531 88.9922 19.6172 88.6016 19.7422C88.2266 19.8516 87.8359 19.9297 87.4297 19.9766C87.0391 20.0078 86.7344 20.0234 86.5156 20.0234C86.2812 20.0234 86.0391 20 85.7891 19.9531C85.5547 19.8906 85.3438 19.7969 85.1562 19.6719C84.9688 19.5469 84.8125 19.3906 84.6875 19.2031C84.5781 19 84.5234 18.7578 84.5234 18.4766ZM91.3438 4.74219C91.5469 4.74219 91.7344 4.75 91.9062 4.76562C92.0781 4.78125 92.2266 4.82031 92.3516 4.88281C92.4766 4.94531 92.5781 5.03906 92.6562 5.16406C92.7344 5.28906 92.7734 5.46094 92.7734 5.67969C92.7734 5.77344 92.7734 5.875 92.7734 5.98438C92.7734 6.09375 92.7578 6.20313 92.7266 6.3125C92.7109 6.40625 92.6719 6.49219 92.6094 6.57031C92.5469 6.63281 92.4453 6.66406 92.3047 6.66406C92.0859 6.66406 91.9062 6.58594 91.7656 6.42969C91.6406 6.27344 91.5469 6.09375 91.4844 5.89062C91.4219 5.67187 91.3828 5.45313 91.3672 5.23438C91.3516 5.01562 91.3438 4.85156 91.3438 4.74219ZM90.3359 18.7812C90.0703 18.1875 89.9531 17.6094 89.9844 17.0469C90.0156 16.4688 90.1406 15.9297 90.3594 15.4297C90.5938 14.9141 90.8906 14.4531 91.25 14.0469C91.625 13.625 92.0234 13.2656 92.4453 12.9688C92.8672 12.6562 93.2891 12.4219 93.7109 12.2656C94.1484 12.1094 94.5312 12.0469 94.8594 12.0781C95.1875 12.0938 95.4453 12.2109 95.6328 12.4297C95.8203 12.6484 95.8828 12.9844 95.8203 13.4375C95.8203 14.0469 95.625 14.5781 95.2344 15.0312C94.8594 15.4844 94.4375 15.8906 93.9688 16.25C93.5156 16.6094 93.0938 16.9375 92.7031 17.2344C92.3281 17.5156 92.1406 17.7812 92.1406 18.0312C92.1406 18.1719 92.2188 18.2812 92.375 18.3594C92.5469 18.4375 92.7422 18.5 92.9609 18.5469C93.1797 18.5781 93.3984 18.6016 93.6172 18.6172C93.8359 18.6328 93.9922 18.6484 94.0859 18.6641C95.5547 18.3516 96.6562 18.1641 97.3906 18.1016C98.125 18.0234 98.5859 18.0312 98.7734 18.125C98.9609 18.2031 98.9219 18.3359 98.6562 18.5234C98.4062 18.6953 98.0156 18.8828 97.4844 19.0859C96.9531 19.2734 96.3359 19.4453 95.6328 19.6016C94.9297 19.7578 94.2344 19.8516 93.5469 19.8828C92.8594 19.8984 92.2188 19.8281 91.625 19.6719C91.0469 19.5156 90.6172 19.2188 90.3359 18.7812ZM94.4375 13.4375C94.125 13.4375 93.8281 13.5234 93.5469 13.6953C93.2656 13.8672 93.0078 14.0859 92.7734 14.3516C92.5547 14.6016 92.3672 14.8828 92.2109 15.1953C92.0547 15.4922 91.9375 15.7734 91.8594 16.0391C91.8906 16.0547 91.9141 16.0625 91.9297 16.0625H92C92.2188 16.0625 92.4688 15.9688 92.75 15.7812C93.0312 15.5938 93.2969 15.3672 93.5469 15.1016C93.7969 14.8203 94.0078 14.5312 94.1797 14.2344C94.3516 13.9375 94.4375 13.6719 94.4375 13.4375ZM98.1406 17.7266C98.1406 17.2734 98.2266 16.8203 98.3984 16.3672C98.5703 15.9141 98.7734 15.4688 99.0078 15.0312C99.2422 14.5781 99.4766 14.1328 99.7109 13.6953C99.9609 13.2578 100.148 12.8281 100.273 12.4062C99.9766 12.5781 99.7188 12.6797 99.5 12.7109C99.2969 12.7266 99.0469 12.7344 98.75 12.7344C98.7188 12.7344 98.6172 12.7344 98.4453 12.7344C98.2891 12.7188 98.1875 12.7109 98.1406 12.7109C98.2344 12.3672 98.4062 12.0625 98.6562 11.7969C98.9062 11.5156 99.1875 11.2812 99.5 11.0938C99.8281 10.8906 100.164 10.7266 100.508 10.6016C100.867 10.4609 101.188 10.3516 101.469 10.2734C101.938 9.53906 102.32 8.80469 102.617 8.07031C102.914 7.32031 103.211 6.59375 103.508 5.89062C103.82 5.17188 104.18 4.49219 104.586 3.85156C105.008 3.19531 105.57 2.59375 106.273 2.04688L106.391 2.9375L103.461 9.80469C103.633 9.75781 103.844 9.71094 104.094 9.66406C104.344 9.61719 104.594 9.57031 104.844 9.52344C105.109 9.47656 105.359 9.4375 105.594 9.40625C105.844 9.35938 106.055 9.3125 106.227 9.26562C106.242 9.26562 106.289 9.26562 106.367 9.26562C106.445 9.25 106.508 9.24219 106.555 9.24219C106.773 9.24219 106.953 9.28125 107.094 9.35938C107.234 9.4375 107.352 9.60938 107.445 9.875C106.383 10.1875 105.422 10.5156 104.562 10.8594C103.703 11.2031 102.953 11.6562 102.312 12.2188C101.688 12.7656 101.172 13.4688 100.766 14.3281C100.375 15.1719 100.102 16.2578 99.9453 17.5859C99.9453 17.8672 99.9609 18.125 99.9922 18.3594C100.023 18.5938 100.219 18.7344 100.578 18.7812C100.938 18.7812 101.273 18.7109 101.586 18.5703C101.898 18.4297 102.203 18.2812 102.5 18.125C102.797 17.9531 103.094 17.7969 103.391 17.6562C103.703 17.5156 104.039 17.4453 104.398 17.4453C104.398 17.8203 104.234 18.1641 103.906 18.4766C103.578 18.7891 103.18 19.0625 102.711 19.2969C102.258 19.5312 101.789 19.7109 101.305 19.8359C100.82 19.9609 100.422 20.0234 100.109 20.0234C99.7969 20.0234 99.5156 19.9609 99.2656 19.8359C99.0156 19.7109 98.8047 19.5469 98.6328 19.3438C98.4766 19.125 98.3516 18.875 98.2578 18.5938C98.1797 18.3125 98.1406 18.0234 98.1406 17.7266ZM104.328 17.8672C104.328 17.7578 104.336 17.5938 104.352 17.375C104.383 17.1406 104.414 16.9141 104.445 16.6953C104.477 16.4766 104.508 16.2812 104.539 16.1094C104.57 15.9219 104.602 15.8047 104.633 15.7578L108.898 7.22656C108.961 7.10156 109.078 6.92969 109.25 6.71094C109.438 6.47656 109.633 6.24219 109.836 6.00781C110.055 5.75781 110.266 5.53125 110.469 5.32812C110.688 5.10937 110.867 4.9375 111.008 4.8125C111.117 4.84375 111.195 4.89844 111.242 4.97656C111.289 5.05469 111.32 5.14844 111.336 5.25781C111.352 5.35156 111.352 5.44531 111.336 5.53906C111.336 5.63281 111.336 5.71094 111.336 5.77344C111.336 5.85156 111.336 5.96094 111.336 6.10156C111.336 6.24219 111.328 6.3125 111.312 6.3125C111.156 6.73438 110.914 7.23438 110.586 7.8125C110.258 8.39062 109.891 9.00781 109.484 9.66406C109.078 10.3203 108.656 11.0078 108.219 11.7266C107.797 12.4297 107.406 13.1328 107.047 13.8359C106.703 14.5234 106.414 15.1875 106.18 15.8281C105.961 16.4688 105.852 17.0547 105.852 17.5859C105.852 17.8672 105.93 18.0938 106.086 18.2656C106.258 18.4219 106.438 18.5625 106.625 18.6875C106.812 18.8125 106.984 18.9375 107.141 19.0625C107.312 19.1875 107.398 19.3594 107.398 19.5781C107.398 19.7188 107.336 19.8281 107.211 19.9062C107.086 19.9688 106.938 20 106.766 20C106.109 20 105.539 19.8203 105.055 19.4609C104.57 19.0859 104.328 18.5547 104.328 17.8672ZM118.039 32.4453C118.039 31.5547 118.195 30.7578 118.508 30.0547C118.805 29.3516 119.203 28.6953 119.703 28.0859C120.203 27.4922 120.773 26.9375 121.414 26.4219C122.055 25.9219 122.711 25.4297 123.383 24.9453C124.055 24.4766 124.711 24 125.352 23.5156C125.992 23.0312 126.562 22.5156 127.062 21.9688C127.562 21.4219 127.961 20.8281 128.258 20.1875C128.57 19.5469 128.727 18.8359 128.727 18.0547C128.727 18.0234 128.727 17.9531 128.727 17.8438C128.727 17.7188 128.719 17.6406 128.703 17.6094C128.594 17.7031 128.383 17.8438 128.07 18.0312C127.758 18.2031 127.422 18.3906 127.062 18.5938C126.719 18.7812 126.383 18.9531 126.055 19.1094C125.727 19.2656 125.492 19.3672 125.352 19.4141C125.336 19.4141 125.273 19.4219 125.164 19.4375C125.07 19.4531 124.953 19.4688 124.812 19.4844C124.688 19.5 124.562 19.5156 124.438 19.5312C124.312 19.5312 124.211 19.5312 124.133 19.5312C123.43 19.4062 122.961 19.1641 122.727 18.8047C122.492 18.4297 122.43 17.9922 122.539 17.4922C122.648 16.9922 122.891 16.4609 123.266 15.8984C123.656 15.3203 124.117 14.7734 124.648 14.2578C125.195 13.7266 125.781 13.2578 126.406 12.8516C127.047 12.4297 127.664 12.1328 128.258 11.9609C128.867 11.7734 129.422 11.7344 129.922 11.8438C130.438 11.9375 130.836 12.2422 131.117 12.7578C131.211 13.4141 131.211 14.0312 131.117 14.6094C131.023 15.1719 130.898 15.7266 130.742 16.2734C130.586 16.8203 130.43 17.375 130.273 17.9375C130.117 18.4844 130.023 19.0859 129.992 19.7422H130.203C130.297 19.6484 130.453 19.4844 130.672 19.25C130.906 19.0156 131.148 18.7734 131.398 18.5234C131.664 18.2578 131.914 18.0156 132.148 17.7969C132.383 17.5625 132.547 17.3984 132.641 17.3047C132.688 17.2578 132.781 17.1953 132.922 17.1172C133.078 17.0391 133.188 17 133.25 17V17.0703V17.1172C133.25 17.1328 133.258 17.1406 133.273 17.1406C133.273 17.7031 133.109 18.2188 132.781 18.6875C132.469 19.1562 132.086 19.5938 131.633 20C131.18 20.4062 130.711 20.7812 130.227 21.125C129.742 21.4844 129.336 21.8281 129.008 22.1562C128.742 22.7031 128.453 23.3828 128.141 24.1953C127.828 25.0234 127.484 25.8984 127.109 26.8203C126.734 27.7578 126.312 28.7031 125.844 29.6562C125.391 30.625 124.875 31.5156 124.297 32.3281C123.734 33.1406 123.109 33.8359 122.422 34.4141C121.734 35.0078 120.969 35.3906 120.125 35.5625C119.719 35.5625 119.383 35.4609 119.117 35.2578C118.836 35.0547 118.617 34.7969 118.461 34.4844C118.305 34.1875 118.195 33.8516 118.133 33.4766C118.07 33.1172 118.039 32.7734 118.039 32.4453ZM119.281 33.7109C119.406 34.0078 119.555 34.1875 119.727 34.25C119.898 34.3125 120.094 34.3438 120.312 34.3438C120.719 34.3438 121.164 34.1328 121.648 33.7109C122.133 33.2891 122.617 32.7422 123.102 32.0703C123.602 31.4141 124.078 30.6797 124.531 29.8672C124.984 29.0547 125.383 28.2656 125.727 27.5C126.086 26.7344 126.367 26.0312 126.57 25.3906C126.789 24.7656 126.898 24.2969 126.898 23.9844C126.898 23.9531 126.891 23.8984 126.875 23.8203C126.875 23.7578 126.875 23.7109 126.875 23.6797C126.828 23.7109 126.719 23.7578 126.547 23.8203C126.391 23.8984 126.297 23.9531 126.266 23.9844C125.609 24.4688 124.867 25 124.039 25.5781C123.227 26.1719 122.469 26.8203 121.766 27.5234C121.047 28.2266 120.445 28.9844 119.961 29.7969C119.477 30.625 119.234 31.5156 119.234 32.4688C119.234 32.5156 119.234 32.6016 119.234 32.7266C119.234 32.8516 119.242 32.9766 119.258 33.1016C119.258 33.2266 119.266 33.3438 119.281 33.4531C119.281 33.5781 119.281 33.6641 119.281 33.7109ZM129.617 13.0391C129.367 13.0391 129.039 13.125 128.633 13.2969C128.227 13.4531 127.789 13.6719 127.32 13.9531C126.867 14.2344 126.406 14.5547 125.938 14.9141C125.469 15.2734 125.039 15.6484 124.648 16.0391C124.273 16.4297 123.969 16.8203 123.734 17.2109C123.5 17.6016 123.383 17.9609 123.383 18.2891C123.711 18.2891 124.109 18.2266 124.578 18.1016C125.047 17.9609 125.531 17.7812 126.031 17.5625C126.547 17.3281 127.055 17.0625 127.555 16.7656C128.055 16.4531 128.5 16.125 128.891 15.7812C129.297 15.4375 129.625 15.0859 129.875 14.7266C130.125 14.3672 130.25 14.0156 130.25 13.6719C130.25 13.25 130.039 13.0391 129.617 13.0391ZM133.156 18.4766C133.297 17.5859 133.562 16.7656 133.953 16.0156C134.344 15.2656 134.789 14.6172 135.289 14.0703C135.805 13.5078 136.359 13.0469 136.953 12.6875C137.547 12.3281 138.125 12.1016 138.688 12.0078C139.25 11.8984 139.766 11.9219 140.234 12.0781C140.719 12.2344 141.109 12.5469 141.406 13.0156C141.406 13.375 141.32 13.7188 141.148 14.0469C140.992 14.375 140.812 14.7031 140.609 15.0312C140.422 15.3594 140.242 15.6953 140.07 16.0391C139.914 16.3828 139.836 16.75 139.836 17.1406C139.836 17.5469 139.922 17.875 140.094 18.125C140.281 18.3594 140.602 18.4766 141.055 18.4766C141.43 18.4766 141.789 18.4219 142.133 18.3125C142.492 18.2031 142.852 18.1484 143.211 18.1484C143.273 18.1484 143.375 18.1562 143.516 18.1719C143.672 18.1719 143.773 18.1719 143.82 18.1719C143.633 18.4375 143.391 18.6641 143.094 18.8516C142.797 19.0391 142.484 19.2031 142.156 19.3438C141.828 19.4688 141.484 19.5625 141.125 19.625C140.781 19.6875 140.461 19.7188 140.164 19.7188C139.883 19.7188 139.633 19.6562 139.414 19.5312C139.195 19.4062 139.008 19.2422 138.852 19.0391C138.695 18.8359 138.57 18.6094 138.477 18.3594C138.398 18.0938 138.359 17.8359 138.359 17.5859C138.125 17.8516 137.867 18.1328 137.586 18.4297C137.32 18.7109 137.031 18.9688 136.719 19.2031C136.422 19.4375 136.094 19.6328 135.734 19.7891C135.391 19.9453 135.031 20.0234 134.656 20.0234C134.25 20.0234 133.898 19.875 133.602 19.5781C133.305 19.2656 133.156 18.8984 133.156 18.4766ZM134.703 17.75C134.703 17.875 134.703 18.0156 134.703 18.1719C134.719 18.3281 134.82 18.4297 135.008 18.4766C135.398 18.3828 135.844 18.1797 136.344 17.8672C136.844 17.5391 137.312 17.1641 137.75 16.7422C138.188 16.3047 138.555 15.8438 138.852 15.3594C139.148 14.8594 139.297 14.3828 139.297 13.9297C139.297 13.8984 139.289 13.8516 139.273 13.7891C139.273 13.7109 139.273 13.6562 139.273 13.625C138.742 13.625 138.203 13.7344 137.656 13.9531C137.109 14.1719 136.617 14.4766 136.18 14.8672C135.742 15.2422 135.383 15.6797 135.102 16.1797C134.836 16.6797 134.703 17.2031 134.703 17.75ZM143 17.8672C143 17.7578 143.008 17.5938 143.023 17.375C143.055 17.1406 143.086 16.9141 143.117 16.6953C143.148 16.4766 143.18 16.2812 143.211 16.1094C143.242 15.9219 143.273 15.8047 143.305 15.7578L147.57 7.22656C147.633 7.10156 147.75 6.92969 147.922 6.71094C148.109 6.47656 148.305 6.24219 148.508 6.00781C148.727 5.75781 148.938 5.53125 149.141 5.32812C149.359 5.10937 149.539 4.9375 149.68 4.8125C149.789 4.84375 149.867 4.89844 149.914 4.97656C149.961 5.05469 149.992 5.14844 150.008 5.25781C150.023 5.35156 150.023 5.44531 150.008 5.53906C150.008 5.63281 150.008 5.71094 150.008 5.77344C150.008 5.85156 150.008 5.96094 150.008 6.10156C150.008 6.24219 150 6.3125 149.984 6.3125C149.828 6.73438 149.586 7.23438 149.258 7.8125C148.93 8.39062 148.562 9.00781 148.156 9.66406C147.75 10.3203 147.328 11.0078 146.891 11.7266C146.469 12.4297 146.078 13.1328 145.719 13.8359C145.375 14.5234 145.086 15.1875 144.852 15.8281C144.633 16.4688 144.523 17.0547 144.523 17.5859C144.523 17.8672 144.602 18.0938 144.758 18.2656C144.93 18.4219 145.109 18.5625 145.297 18.6875C145.484 18.8125 145.656 18.9375 145.812 19.0625C145.984 19.1875 146.07 19.3594 146.07 19.5781C146.07 19.7188 146.008 19.8281 145.883 19.9062C145.758 19.9688 145.609 20 145.438 20C144.781 20 144.211 19.8203 143.727 19.4609C143.242 19.0859 143 18.5547 143 17.8672ZM149.211 18.7812C148.945 18.1875 148.828 17.6094 148.859 17.0469C148.891 16.4688 149.016 15.9297 149.234 15.4297C149.469 14.9141 149.766 14.4531 150.125 14.0469C150.5 13.625 150.898 13.2656 151.32 12.9688C151.742 12.6562 152.164 12.4219 152.586 12.2656C153.023 12.1094 153.406 12.0469 153.734 12.0781C154.062 12.0938 154.32 12.2109 154.508 12.4297C154.695 12.6484 154.758 12.9844 154.695 13.4375C154.695 14.0469 154.5 14.5781 154.109 15.0312C153.734 15.4844 153.312 15.8906 152.844 16.25C152.391 16.6094 151.969 16.9375 151.578 17.2344C151.203 17.5156 151.016 17.7812 151.016 18.0312C151.016 18.1719 151.094 18.2812 151.25 18.3594C151.422 18.4375 151.617 18.5 151.836 18.5469C152.055 18.5781 152.273 18.6016 152.492 18.6172C152.711 18.6328 152.867 18.6484 152.961 18.6641C154.43 18.3516 155.531 18.1641 156.266 18.1016C157 18.0234 157.461 18.0312 157.648 18.125C157.836 18.2031 157.797 18.3359 157.531 18.5234C157.281 18.6953 156.891 18.8828 156.359 19.0859C155.828 19.2734 155.211 19.4453 154.508 19.6016C153.805 19.7578 153.109 19.8516 152.422 19.8828C151.734 19.8984 151.094 19.8281 150.5 19.6719C149.922 19.5156 149.492 19.2188 149.211 18.7812ZM153.312 13.4375C153 13.4375 152.703 13.5234 152.422 13.6953C152.141 13.8672 151.883 14.0859 151.648 14.3516C151.43 14.6016 151.242 14.8828 151.086 15.1953C150.93 15.4922 150.812 15.7734 150.734 16.0391C150.766 16.0547 150.789 16.0625 150.805 16.0625H150.875C151.094 16.0625 151.344 15.9688 151.625 15.7812C151.906 15.5938 152.172 15.3672 152.422 15.1016C152.672 14.8203 152.883 14.5312 153.055 14.2344C153.227 13.9375 153.312 13.6719 153.312 13.4375ZM162.312 18.1953C162.312 17.7266 162.406 17.2969 162.594 16.9062C162.797 16.5 163.016 16.1172 163.25 15.7578C163.484 15.3984 163.695 15.0391 163.883 14.6797C164.086 14.3203 164.188 13.9375 164.188 13.5312C164.188 13.4375 164.18 13.3281 164.164 13.2031C164.164 13.0625 164.148 12.9297 164.117 12.8047C164.102 12.6797 164.055 12.5781 163.977 12.5C163.914 12.4062 163.828 12.3594 163.719 12.3594C163.703 12.3594 163.672 12.3672 163.625 12.3828C163.594 12.3828 163.578 12.3906 163.578 12.4062C163.359 12.7031 163.094 13.0391 162.781 13.4141C162.484 13.7734 162.164 14.1328 161.82 14.4922C161.477 14.8516 161.141 15.1953 160.812 15.5234C160.484 15.8516 160.188 16.125 159.922 16.3438C159.734 16.5156 159.477 16.75 159.148 17.0469C158.836 17.3438 158.516 17.6406 158.188 17.9375C157.875 18.2188 157.594 18.4688 157.344 18.6875C157.109 18.9062 156.977 19.0156 156.945 19.0156L155.867 18.1016C156.008 18.1016 156.148 18.0703 156.289 18.0078C156.414 17.9453 156.539 17.875 156.664 17.7969C157.602 17.1719 158.445 16.4531 159.195 15.6406C159.961 14.8281 160.711 13.9531 161.445 13.0156C161.477 12.9688 161.555 12.8359 161.68 12.6172C161.82 12.3828 161.969 12.125 162.125 11.8438C162.281 11.5469 162.438 11.2578 162.594 10.9766C162.75 10.6797 162.867 10.4453 162.945 10.2734C163.039 10.0703 163.094 9.90625 163.109 9.78125C163.141 9.65625 163.164 9.5625 163.18 9.5C163.211 9.42188 163.258 9.36719 163.32 9.33594C163.383 9.30469 163.516 9.28906 163.719 9.28906C163.75 9.28906 163.82 9.29688 163.93 9.3125C164.055 9.32812 164.133 9.34375 164.164 9.35938C164.367 9.78125 164.547 10.1562 164.703 10.4844C164.859 10.8125 164.992 11.125 165.102 11.4219C165.211 11.7031 165.289 11.9922 165.336 12.2891C165.398 12.5859 165.43 12.9141 165.43 13.2734C165.227 13.7891 165 14.3203 164.75 14.8672C164.5 15.3984 164.289 15.9062 164.117 16.3906C163.945 16.875 163.836 17.3125 163.789 17.7031C163.758 18.0938 163.844 18.4062 164.047 18.6406C164.266 18.8594 164.625 18.9766 165.125 18.9922C165.641 19.0078 166.367 18.875 167.305 18.5938C167.555 18.7188 167.578 18.875 167.375 19.0625C167.172 19.2344 166.859 19.3984 166.438 19.5547C166.031 19.7109 165.578 19.8438 165.078 19.9531C164.594 20.0469 164.188 20.0703 163.859 20.0234C163.562 20.0234 163.312 19.9766 163.109 19.8828C162.922 19.7734 162.766 19.6328 162.641 19.4609C162.531 19.2891 162.445 19.0938 162.383 18.875C162.336 18.6562 162.312 18.4297 162.312 18.1953ZM166.109 18.4766C166.109 18.2578 166.133 18.0703 166.18 17.9141C166.227 17.7422 166.312 17.5234 166.438 17.2578C166.547 17.1016 166.742 16.8047 167.023 16.3672C167.32 15.9297 167.625 15.4688 167.938 14.9844C168.266 14.5 168.57 14.0469 168.852 13.625C169.148 13.1875 169.352 12.8828 169.461 12.7109C169.602 12.5078 169.711 12.3984 169.789 12.3828C169.867 12.3672 170.016 12.3594 170.234 12.3594C170.375 12.3594 170.523 12.3672 170.68 12.3828C170.852 12.3984 170.961 12.5078 171.008 12.7109C170.789 13.2422 170.492 13.75 170.117 14.2344C169.758 14.7031 169.398 15.1719 169.039 15.6406C168.695 16.1094 168.391 16.5938 168.125 17.0938C167.859 17.5781 167.727 18.1016 167.727 18.6641C167.789 18.6641 167.883 18.6719 168.008 18.6875C168.148 18.7031 168.297 18.7188 168.453 18.7344C168.609 18.75 168.75 18.7656 168.875 18.7812C169.016 18.7969 169.117 18.7969 169.18 18.7812C169.273 18.7656 169.43 18.7344 169.648 18.6875C169.883 18.625 170.125 18.5625 170.375 18.5C170.641 18.4375 170.891 18.375 171.125 18.3125C171.359 18.25 171.523 18.2031 171.617 18.1719C171.617 18.2031 171.617 18.2578 171.617 18.3359C171.633 18.3984 171.641 18.4453 171.641 18.4766C171.641 18.7891 171.492 19.0469 171.195 19.25C170.914 19.4531 170.578 19.6172 170.188 19.7422C169.812 19.8516 169.422 19.9297 169.016 19.9766C168.625 20.0078 168.32 20.0234 168.102 20.0234C167.867 20.0234 167.625 20 167.375 19.9531C167.141 19.8906 166.93 19.7969 166.742 19.6719C166.555 19.5469 166.398 19.3906 166.273 19.2031C166.164 19 166.109 18.7578 166.109 18.4766ZM172.93 4.74219C173.133 4.74219 173.32 4.75 173.492 4.76562C173.664 4.78125 173.812 4.82031 173.938 4.88281C174.062 4.94531 174.164 5.03906 174.242 5.16406C174.32 5.28906 174.359 5.46094 174.359 5.67969C174.359 5.77344 174.359 5.875 174.359 5.98438C174.359 6.09375 174.344 6.20313 174.312 6.3125C174.297 6.40625 174.258 6.49219 174.195 6.57031C174.133 6.63281 174.031 6.66406 173.891 6.66406C173.672 6.66406 173.492 6.58594 173.352 6.42969C173.227 6.27344 173.133 6.09375 173.07 5.89062C173.008 5.67187 172.969 5.45313 172.953 5.23438C172.938 5.01562 172.93 4.85156 172.93 4.74219ZM177.664 23.8672C177.211 23.8672 176.688 23.8281 176.094 23.75C175.516 23.6719 174.969 23.5547 174.453 23.3984C173.938 23.2578 173.5 23.0703 173.141 22.8359C172.797 22.6172 172.625 22.3594 172.625 22.0625C172.688 21.5938 172.852 21.1562 173.117 20.75C173.367 20.3906 173.648 20.0859 173.961 19.8359C173.695 19.7891 173.445 19.7344 173.211 19.6719C172.633 19.5156 172.203 19.2188 171.922 18.7812C171.656 18.1875 171.539 17.6094 171.57 17.0469C171.602 16.4688 171.727 15.9297 171.945 15.4297C172.18 14.9141 172.477 14.4531 172.836 14.0469C173.211 13.625 173.609 13.2656 174.031 12.9688C174.453 12.6562 174.875 12.4219 175.297 12.2656C175.734 12.1094 176.117 12.0469 176.445 12.0781C176.773 12.0938 177.031 12.2109 177.219 12.4297C177.406 12.6484 177.469 12.9844 177.406 13.4375C177.406 14.0469 177.211 14.5781 176.82 15.0312C176.445 15.4844 176.023 15.8906 175.555 16.25C175.102 16.6094 174.68 16.9375 174.289 17.2344C173.914 17.5156 173.727 17.7812 173.727 18.0312C173.727 18.1719 173.805 18.2812 173.961 18.3594C174.133 18.4375 174.328 18.5 174.547 18.5469C174.766 18.5781 174.984 18.6016 175.203 18.6172C175.422 18.6328 175.578 18.6484 175.672 18.6641C177.141 18.3516 178.242 18.1641 178.977 18.1016C179.711 18.0234 180.172 18.0312 180.359 18.125C180.547 18.2031 180.508 18.3359 180.242 18.5234C179.992 18.6953 179.602 18.8828 179.07 19.0859C178.539 19.2734 177.922 19.4453 177.219 19.6016C176.719 19.7109 176.227 19.7891 175.742 19.8359C175.727 19.8828 175.703 19.9219 175.672 19.9531C175.5 20.1562 175.336 20.3281 175.18 20.4688C175.039 20.625 174.906 20.7812 174.781 20.9375C174.672 21.0938 174.594 21.3281 174.547 21.6406C174.406 21.9375 174.398 22.1562 174.523 22.2969C174.664 22.4375 174.898 22.5391 175.227 22.6016C175.555 22.6641 175.953 22.6953 176.422 22.6953C176.906 22.7109 177.406 22.7344 177.922 22.7656L177.664 23.8672ZM176.023 13.4375C175.711 13.4375 175.414 13.5234 175.133 13.6953C174.852 13.8672 174.594 14.0859 174.359 14.3516C174.141 14.6016 173.953 14.8828 173.797 15.1953C173.641 15.4922 173.523 15.7734 173.445 16.0391C173.477 16.0547 173.5 16.0625 173.516 16.0625H173.586C173.805 16.0625 174.055 15.9688 174.336 15.7812C174.617 15.5938 174.883 15.3672 175.133 15.1016C175.383 14.8203 175.594 14.5312 175.766 14.2344C175.938 13.9375 176.023 13.6719 176.023 13.4375Z" fill="white"/>
<path d="M10 4V24" stroke="white" stroke-width="2"/>
<path d="M0 14L20 14" stroke="white" stroke-width="2"/>
</svg>
