<svg width="193" height="36" viewBox="0 0 193 36" fill="none" xmlns="http://www.w3.org/2000/svg">
<path d="M42.6406 20.0234C42.0625 19.9922 41.5078 19.9062 40.9766 19.7656C40.4609 19.6094 39.9453 19.4297 39.4297 19.2266C38.9141 19.0234 38.3984 18.8203 37.8828 18.6172C37.3672 18.3984 36.8281 18.2188 36.2656 18.0781C35.7188 17.9219 35.1328 17.8203 34.5078 17.7734C33.8984 17.7109 33.2344 17.7422 32.5156 17.8672C32.3125 17.9141 32.0938 18.0234 31.8594 18.1953C31.6406 18.3672 31.4297 18.5547 31.2266 18.7578C31.0234 18.9609 30.8438 19.1562 30.6875 19.3438C30.5312 19.5156 30.4219 19.6328 30.3594 19.6953C30.3281 19.6953 30.2734 19.7031 30.1953 19.7188C30.1328 19.7188 30.0859 19.7188 30.0547 19.7188C29.6328 19.7188 29.4219 19.5078 29.4219 19.0859C29.4219 19.0547 29.4219 19.0078 29.4219 18.9453C29.4375 18.8672 29.4453 18.8125 29.4453 18.7812C30.4453 17.7969 31.4453 16.8125 32.4453 15.8281C33.4453 14.8281 34.3828 13.7969 35.2578 12.7344C36.1484 11.6719 36.9375 10.5547 37.625 9.38281C38.3281 8.19531 38.875 6.92188 39.2656 5.5625C38.6406 5.60938 37.9688 5.67187 37.25 5.75C36.5469 5.82813 35.8438 5.95312 35.1406 6.125C34.4375 6.28125 33.7656 6.5 33.125 6.78125C32.4844 7.04688 31.9219 7.40625 31.4375 7.85938C31.2031 7.85938 31.0625 7.77344 31.0156 7.60156C30.9688 7.41406 30.9453 7.23438 30.9453 7.0625C30.9453 6.92188 30.9453 6.82031 30.9453 6.75781C30.9609 6.67969 30.9844 6.625 31.0156 6.59375C31.0625 6.54688 31.125 6.50781 31.2031 6.47656C31.2969 6.44531 31.4297 6.39063 31.6016 6.3125C32.1953 6.07812 32.8203 5.82031 33.4766 5.53906C34.1328 5.25781 34.7969 5 35.4688 4.76562C36.1562 4.51563 36.8438 4.30469 37.5312 4.13281C38.2344 3.96094 38.9375 3.875 39.6406 3.875C39.6875 3.875 39.7578 3.875 39.8516 3.875C39.9609 3.875 40.0703 3.88281 40.1797 3.89844C40.2891 3.89844 40.3906 3.89844 40.4844 3.89844C40.5938 3.89844 40.6641 3.89844 40.6953 3.89844C41.0234 4.02344 41.2109 4.1875 41.2578 4.39062C41.3047 4.59375 41.3281 4.82031 41.3281 5.07031C41.3281 5.53906 41.2812 5.95312 41.1875 6.3125C41.0938 6.65625 40.9297 7.07031 40.6953 7.55469C40.2109 8.24219 39.6797 8.98438 39.1016 9.78125C38.5234 10.5625 37.9141 11.3594 37.2734 12.1719C36.6484 12.9844 36.0078 13.7812 35.3516 14.5625C34.6953 15.3281 34.0469 16.0312 33.4062 16.6719C33.6406 16.6562 33.9766 16.6406 34.4141 16.625C34.8516 16.5938 35.3203 16.5859 35.8203 16.6016C36.3359 16.6016 36.8359 16.6328 37.3203 16.6953C37.8203 16.7422 38.2422 16.8281 38.5859 16.9531C38.9766 17.1094 39.3281 17.2812 39.6406 17.4688C39.9688 17.6406 40.2812 17.8047 40.5781 17.9609C40.8906 18.1016 41.2109 18.2266 41.5391 18.3359C41.8672 18.4297 42.2344 18.4766 42.6406 18.4766C43.3438 18.4766 44.0312 18.3906 44.7031 18.2188C45.375 18.0469 46.0391 17.8672 46.6953 17.6797C47.3516 17.4766 47.9844 17.2891 48.5938 17.1172C49.2188 16.9453 49.8203 16.8594 50.3984 16.8594V17.2578C50.3984 17.2734 50.3125 17.3359 50.1406 17.4453C49.9844 17.5391 49.7969 17.6562 49.5781 17.7969C49.3594 17.9219 49.125 18.0469 48.875 18.1719C48.6406 18.2969 48.4453 18.3984 48.2891 18.4766C47.3203 18.9297 46.3906 19.3047 45.5 19.6016C44.625 19.8828 43.6719 20.0234 42.6406 20.0234ZM49.8828 18.0312C49.8828 17.9688 49.8828 17.8438 49.8828 17.6562C49.8984 17.4531 49.9062 17.3203 49.9062 17.2578C50.4062 16.1172 51.0469 15.0625 51.8281 14.0938C52.6094 13.125 53.4922 12.2656 54.4766 11.5156C54.5078 11.5156 54.5547 11.5078 54.6172 11.4922C54.6953 11.4609 54.75 11.4453 54.7812 11.4453C55.2031 11.4453 55.5469 11.5391 55.8125 11.7266C56.0938 11.8984 56.3125 12.1328 56.4688 12.4297C56.6406 12.7109 56.7578 13.0312 56.8203 13.3906C56.8828 13.7344 56.9141 14.0703 56.9141 14.3984C56.9141 15.0078 56.7734 15.6484 56.4922 16.3203C56.2109 16.9766 55.8281 17.5859 55.3438 18.1484C54.875 18.6953 54.3359 19.1484 53.7266 19.5078C53.1172 19.8516 52.4844 20.0234 51.8281 20.0234C51.1719 20.0234 50.6797 19.8516 50.3516 19.5078C50.0391 19.1484 49.8828 18.6562 49.8828 18.0312ZM51.7109 17.75C51.7109 17.9219 51.7812 18.0391 51.9219 18.1016C52.0625 18.1641 52.2031 18.1953 52.3438 18.1953C52.7344 18.1953 53.1094 18.0938 53.4688 17.8906C53.8438 17.6719 54.1719 17.4062 54.4531 17.0938C54.75 16.7656 54.9844 16.4062 55.1562 16.0156C55.3281 15.625 55.4141 15.25 55.4141 14.8906C55.4141 14.7188 55.3984 14.5312 55.3672 14.3281C55.3516 14.1094 55.3047 13.9219 55.2266 13.7656C55.1484 13.5938 55.0234 13.4609 54.8516 13.3672C54.6953 13.2734 54.4688 13.2578 54.1719 13.3203C53.9531 13.3672 53.7031 13.5703 53.4219 13.9297C53.1406 14.2891 52.8672 14.7109 52.6016 15.1953C52.3516 15.6641 52.1406 16.1406 51.9688 16.625C51.7969 17.0938 51.7109 17.4688 51.7109 17.75ZM57.6172 17.8672C57.6172 17.6641 57.6641 17.4375 57.7578 17.1875C57.8672 16.9219 58.0312 16.75 58.25 16.6719C58.2812 16.6562 58.3203 16.6484 58.3672 16.6484C58.4297 16.6328 58.4844 16.6172 58.5312 16.6016C58.5938 16.5859 58.6484 16.5781 58.6953 16.5781V17.8672C58.7891 17.7734 58.9297 17.6016 59.1172 17.3516C59.3203 17.1016 59.5234 16.8359 59.7266 16.5547C59.9453 16.2578 60.1406 15.9766 60.3125 15.7109C60.5 15.4453 60.625 15.25 60.6875 15.125L66.1484 4.48438C66.1484 4.48438 66.1875 4.4375 66.2656 4.34375C66.3594 4.25 66.4609 4.1875 66.5703 4.15625C66.6953 4.10938 66.8281 4.125 66.9688 4.20312C67.1094 4.28125 67.2422 4.48438 67.3672 4.8125L64.0391 11.5156V11.7969C64.4766 11.8594 64.8828 11.9531 65.2578 12.0781C65.6328 12.1875 65.9531 12.3516 66.2188 12.5703C66.5 12.7891 66.7188 13.0625 66.875 13.3906C67.0312 13.7031 67.1094 14.0859 67.1094 14.5391C67.1094 15.3047 66.9062 16.0234 66.5 16.6953C66.1094 17.3516 65.6016 17.9297 64.9766 18.4297C64.3516 18.9141 63.6562 19.3047 62.8906 19.6016C62.1406 19.8828 61.4141 20.0234 60.7109 20.0234C60.3984 20.0234 60.0625 19.9844 59.7031 19.9062C59.3438 19.8125 59.0078 19.6797 58.6953 19.5078C58.3984 19.3203 58.1406 19.0938 57.9219 18.8281C57.7188 18.5469 57.6172 18.2266 57.6172 17.8672ZM64.2969 13.2734C64.0781 13.2734 63.8359 13.375 63.5703 13.5781C63.3203 13.7812 63.0703 14.0469 62.8203 14.375C62.5703 14.6875 62.3281 15.0469 62.0938 15.4531C61.8594 15.8438 61.6484 16.2344 61.4609 16.625C61.2891 17.0156 61.1484 17.3828 61.0391 17.7266C60.9297 18.0703 60.875 18.3438 60.875 18.5469C61.3125 18.5469 61.8047 18.4453 62.3516 18.2422C62.8984 18.0391 63.4062 17.7734 63.875 17.4453C64.3594 17.1016 64.7578 16.7109 65.0703 16.2734C65.3984 15.8203 65.5625 15.3516 65.5625 14.8672C65.5625 14.4453 65.4766 14.0781 65.3047 13.7656C65.1328 13.4375 64.7969 13.2734 64.2969 13.2734ZM73.4141 18.1953C73.4141 17.7266 73.5078 17.2969 73.6953 16.9062C73.8984 16.5 74.1172 16.1172 74.3516 15.7578C74.5859 15.3984 74.7969 15.0391 74.9844 14.6797C75.1875 14.3203 75.2891 13.9375 75.2891 13.5312C75.2891 13.4375 75.2812 13.3281 75.2656 13.2031C75.2656 13.0625 75.25 12.9297 75.2188 12.8047C75.2031 12.6797 75.1562 12.5781 75.0781 12.5C75.0156 12.4062 74.9297 12.3594 74.8203 12.3594C74.8047 12.3594 74.7734 12.3672 74.7266 12.3828C74.6953 12.3828 74.6797 12.3906 74.6797 12.4062C74.4609 12.7031 74.1953 13.0391 73.8828 13.4141C73.5859 13.7734 73.2656 14.1328 72.9219 14.4922C72.5781 14.8516 72.2422 15.1953 71.9141 15.5234C71.5859 15.8516 71.2891 16.125 71.0234 16.3438C70.8359 16.5156 70.5781 16.75 70.25 17.0469C69.9375 17.3438 69.6172 17.6406 69.2891 17.9375C68.9766 18.2188 68.6953 18.4688 68.4453 18.6875C68.2109 18.9062 68.0781 19.0156 68.0469 19.0156L66.9688 18.1016C67.1094 18.1016 67.25 18.0703 67.3906 18.0078C67.5156 17.9453 67.6406 17.875 67.7656 17.7969C68.7031 17.1719 69.5469 16.4531 70.2969 15.6406C71.0625 14.8281 71.8125 13.9531 72.5469 13.0156C72.5781 12.9688 72.6562 12.8359 72.7812 12.6172C72.9219 12.3828 73.0703 12.125 73.2266 11.8438C73.3828 11.5469 73.5391 11.2578 73.6953 10.9766C73.8516 10.6797 73.9688 10.4453 74.0469 10.2734C74.1406 10.0703 74.1953 9.90625 74.2109 9.78125C74.2422 9.65625 74.2656 9.5625 74.2812 9.5C74.3125 9.42188 74.3594 9.36719 74.4219 9.33594C74.4844 9.30469 74.6172 9.28906 74.8203 9.28906C74.8516 9.28906 74.9219 9.29688 75.0312 9.3125C75.1562 9.32812 75.2344 9.34375 75.2656 9.35938C75.4688 9.78125 75.6484 10.1562 75.8047 10.4844C75.9609 10.8125 76.0938 11.125 76.2031 11.4219C76.3125 11.7031 76.3906 11.9922 76.4375 12.2891C76.5 12.5859 76.5312 12.9141 76.5312 13.2734C76.3281 13.7891 76.1016 14.3203 75.8516 14.8672C75.6016 15.3984 75.3906 15.9062 75.2188 16.3906C75.0469 16.875 74.9375 17.3125 74.8906 17.7031C74.8594 18.0938 74.9453 18.4062 75.1484 18.6406C75.3672 18.8594 75.7266 18.9766 76.2266 18.9922C76.7422 19.0078 77.4688 18.875 78.4062 18.5938C78.6562 18.7188 78.6797 18.875 78.4766 19.0625C78.2734 19.2344 77.9609 19.3984 77.5391 19.5547C77.1328 19.7109 76.6797 19.8438 76.1797 19.9531C75.6953 20.0469 75.2891 20.0703 74.9609 20.0234C74.6641 20.0234 74.4141 19.9766 74.2109 19.8828C74.0234 19.7734 73.8672 19.6328 73.7422 19.4609C73.6328 19.2891 73.5469 19.0938 73.4844 18.875C73.4375 18.6562 73.4141 18.4297 73.4141 18.1953ZM77.5156 18.4766C77.6562 17.5859 77.9219 16.7656 78.3125 16.0156C78.7031 15.2656 79.1484 14.6172 79.6484 14.0703C80.1641 13.5078 80.7188 13.0469 81.3125 12.6875C81.9062 12.3281 82.4844 12.1016 83.0469 12.0078C83.6094 11.8984 84.125 11.9219 84.5938 12.0781C85.0781 12.2344 85.4688 12.5469 85.7656 13.0156C85.7656 13.375 85.6797 13.7188 85.5078 14.0469C85.3516 14.375 85.1719 14.7031 84.9688 15.0312C84.7812 15.3594 84.6016 15.6953 84.4297 16.0391C84.2734 16.3828 84.1953 16.75 84.1953 17.1406C84.1953 17.5469 84.2812 17.875 84.4531 18.125C84.6406 18.3594 84.9609 18.4766 85.4141 18.4766C85.7891 18.4766 86.1484 18.4219 86.4922 18.3125C86.8516 18.2031 87.2109 18.1484 87.5703 18.1484C87.6328 18.1484 87.7344 18.1562 87.875 18.1719C88.0312 18.1719 88.1328 18.1719 88.1797 18.1719C87.9922 18.4375 87.75 18.6641 87.4531 18.8516C87.1562 19.0391 86.8438 19.2031 86.5156 19.3438C86.1875 19.4688 85.8438 19.5625 85.4844 19.625C85.1406 19.6875 84.8203 19.7188 84.5234 19.7188C84.2422 19.7188 83.9922 19.6562 83.7734 19.5312C83.5547 19.4062 83.3672 19.2422 83.2109 19.0391C83.0547 18.8359 82.9297 18.6094 82.8359 18.3594C82.7578 18.0938 82.7188 17.8359 82.7188 17.5859C82.4844 17.8516 82.2266 18.1328 81.9453 18.4297C81.6797 18.7109 81.3906 18.9688 81.0781 19.2031C80.7812 19.4375 80.4531 19.6328 80.0938 19.7891C79.75 19.9453 79.3906 20.0234 79.0156 20.0234C78.6094 20.0234 78.2578 19.875 77.9609 19.5781C77.6641 19.2656 77.5156 18.8984 77.5156 18.4766ZM79.0625 17.75C79.0625 17.875 79.0625 18.0156 79.0625 18.1719C79.0781 18.3281 79.1797 18.4297 79.3672 18.4766C79.7578 18.3828 80.2031 18.1797 80.7031 17.8672C81.2031 17.5391 81.6719 17.1641 82.1094 16.7422C82.5469 16.3047 82.9141 15.8438 83.2109 15.3594C83.5078 14.8594 83.6562 14.3828 83.6562 13.9297C83.6562 13.8984 83.6484 13.8516 83.6328 13.7891C83.6328 13.7109 83.6328 13.6562 83.6328 13.625C83.1016 13.625 82.5625 13.7344 82.0156 13.9531C81.4688 14.1719 80.9766 14.4766 80.5391 14.8672C80.1016 15.2422 79.7422 15.6797 79.4609 16.1797C79.1953 16.6797 79.0625 17.2031 79.0625 17.75ZM87.8047 18.9453C87.8047 18.9141 87.8047 18.8828 87.8047 18.8516C87.8047 18.8203 87.8125 18.7969 87.8281 18.7812C88.2812 18.2812 88.7578 17.8047 89.2578 17.3516C89.7734 16.8828 90.3125 16.4453 90.875 16.0391L96.0312 9.96875H95.7031C95.375 9.96875 95.0547 10.0078 94.7422 10.0859C94.4297 10.1484 94.1172 10.2188 93.8047 10.2969C93.4922 10.375 93.1797 10.4531 92.8672 10.5312C92.5547 10.5938 92.2344 10.625 91.9062 10.625C91.4531 10.5625 91.1484 10.4688 90.9922 10.3438C90.8516 10.2188 90.8125 10.0859 90.875 9.94531C90.9375 9.78906 91.0781 9.63281 91.2969 9.47656C91.5156 9.32031 91.7734 9.1875 92.0703 9.07812C92.3672 8.95312 92.6797 8.86719 93.0078 8.82031C93.3359 8.75781 93.6328 8.74219 93.8984 8.77344C94.5078 8.61719 95.0312 8.52344 95.4688 8.49219C95.9219 8.44531 96.4297 8.42188 96.9922 8.42188C97.4453 8.42188 97.8047 8.50781 98.0703 8.67969C98.3359 8.83594 98.4688 9.17188 98.4688 9.6875C98.4688 9.79688 98.3281 10.0312 98.0469 10.3906C97.7812 10.7344 97.4375 11.1562 97.0156 11.6562C96.5938 12.1406 96.125 12.6641 95.6094 13.2266C95.1094 13.7891 94.6172 14.3359 94.1328 14.8672C93.6641 15.3984 93.2422 15.8828 92.8672 16.3203C92.4922 16.7422 92.2266 17.0547 92.0703 17.2578C92.0859 17.2891 92.1328 17.3438 92.2109 17.4219C92.2891 17.5 92.3438 17.5547 92.375 17.5859C92.7969 17.7266 93.2656 17.8281 93.7812 17.8906C94.3125 17.9375 94.8438 17.9688 95.375 17.9844C95.9062 17.9844 96.4141 17.9766 96.8984 17.9609C97.3828 17.9297 97.7969 17.8984 98.1406 17.8672C98.2656 17.9297 98.3516 18 98.3984 18.0781C98.4453 18.1406 98.4688 18.2188 98.4688 18.3125C98.4688 18.6406 98.3203 18.8828 98.0234 19.0391C97.7266 19.1953 97.3906 19.3047 97.0156 19.3672C96.6406 19.4141 96.2734 19.4375 95.9141 19.4375C95.5547 19.4219 95.3125 19.4141 95.1875 19.4141C94.8125 19.4141 94.4531 19.3828 94.1094 19.3203C93.7656 19.2578 93.4219 19.1875 93.0781 19.1094C92.7344 19.0156 92.3906 18.9375 92.0469 18.875C91.7188 18.8125 91.375 18.7812 91.0156 18.7812C90.7656 18.7812 90.5469 18.8516 90.3594 18.9922C90.1875 19.1172 90.0156 19.2578 89.8438 19.4141C89.6875 19.5547 89.5312 19.6953 89.375 19.8359C89.2344 19.9609 89.0703 20.0234 88.8828 20.0234C88.6172 20.0234 88.3672 19.9062 88.1328 19.6719C87.9141 19.4375 87.8047 19.1953 87.8047 18.9453ZM99.1953 18.4766C99.1953 18.2578 99.2188 18.0703 99.2656 17.9141C99.3125 17.7422 99.3984 17.5234 99.5234 17.2578C99.6328 17.1016 99.8281 16.8047 100.109 16.3672C100.406 15.9297 100.711 15.4688 101.023 14.9844C101.352 14.5 101.656 14.0469 101.938 13.625C102.234 13.1875 102.438 12.8828 102.547 12.7109C102.688 12.5078 102.797 12.3984 102.875 12.3828C102.953 12.3672 103.102 12.3594 103.32 12.3594C103.461 12.3594 103.609 12.3672 103.766 12.3828C103.938 12.3984 104.047 12.5078 104.094 12.7109C103.875 13.2422 103.578 13.75 103.203 14.2344C102.844 14.7031 102.484 15.1719 102.125 15.6406C101.781 16.1094 101.477 16.5938 101.211 17.0938C100.945 17.5781 100.812 18.1016 100.812 18.6641C100.875 18.6641 100.969 18.6719 101.094 18.6875C101.234 18.7031 101.383 18.7188 101.539 18.7344C101.695 18.75 101.836 18.7656 101.961 18.7812C102.102 18.7969 102.203 18.7969 102.266 18.7812C102.359 18.7656 102.516 18.7344 102.734 18.6875C102.969 18.625 103.211 18.5625 103.461 18.5C103.727 18.4375 103.977 18.375 104.211 18.3125C104.445 18.25 104.609 18.2031 104.703 18.1719C104.703 18.2031 104.703 18.2578 104.703 18.3359C104.719 18.3984 104.727 18.4453 104.727 18.4766C104.727 18.7891 104.578 19.0469 104.281 19.25C104 19.4531 103.664 19.6172 103.273 19.7422C102.898 19.8516 102.508 19.9297 102.102 19.9766C101.711 20.0078 101.406 20.0234 101.188 20.0234C100.953 20.0234 100.711 20 100.461 19.9531C100.227 19.8906 100.016 19.7969 99.8281 19.6719C99.6406 19.5469 99.4844 19.3906 99.3594 19.2031C99.25 19 99.1953 18.7578 99.1953 18.4766ZM106.016 4.74219C106.219 4.74219 106.406 4.75 106.578 4.76562C106.75 4.78125 106.898 4.82031 107.023 4.88281C107.148 4.94531 107.25 5.03906 107.328 5.16406C107.406 5.28906 107.445 5.46094 107.445 5.67969C107.445 5.77344 107.445 5.875 107.445 5.98438C107.445 6.09375 107.43 6.20313 107.398 6.3125C107.383 6.40625 107.344 6.49219 107.281 6.57031C107.219 6.63281 107.117 6.66406 106.977 6.66406C106.758 6.66406 106.578 6.58594 106.438 6.42969C106.312 6.27344 106.219 6.09375 106.156 5.89062C106.094 5.67187 106.055 5.45313 106.039 5.23438C106.023 5.01562 106.016 4.85156 106.016 4.74219ZM104.773 17.7266C104.773 17.2734 104.859 16.8203 105.031 16.3672C105.203 15.9141 105.406 15.4688 105.641 15.0312C105.875 14.5781 106.109 14.1328 106.344 13.6953C106.594 13.2578 106.781 12.8281 106.906 12.4062C106.609 12.5781 106.352 12.6797 106.133 12.7109C105.93 12.7266 105.68 12.7344 105.383 12.7344C105.352 12.7344 105.25 12.7344 105.078 12.7344C104.922 12.7188 104.82 12.7109 104.773 12.7109C104.867 12.3672 105.039 12.0625 105.289 11.7969C105.539 11.5156 105.82 11.2812 106.133 11.0938C106.461 10.8906 106.797 10.7266 107.141 10.6016C107.5 10.4609 107.82 10.3516 108.102 10.2734C108.57 9.53906 108.953 8.80469 109.25 8.07031C109.547 7.32031 109.844 6.59375 110.141 5.89062C110.453 5.17188 110.812 4.49219 111.219 3.85156C111.641 3.19531 112.203 2.59375 112.906 2.04688L113.023 2.9375L110.094 9.80469C110.266 9.75781 110.477 9.71094 110.727 9.66406C110.977 9.61719 111.227 9.57031 111.477 9.52344C111.742 9.47656 111.992 9.4375 112.227 9.40625C112.477 9.35938 112.688 9.3125 112.859 9.26562C112.875 9.26562 112.922 9.26562 113 9.26562C113.078 9.25 113.141 9.24219 113.188 9.24219C113.406 9.24219 113.586 9.28125 113.727 9.35938C113.867 9.4375 113.984 9.60938 114.078 9.875C113.016 10.1875 112.055 10.5156 111.195 10.8594C110.336 11.2031 109.586 11.6562 108.945 12.2188C108.32 12.7656 107.805 13.4688 107.398 14.3281C107.008 15.1719 106.734 16.2578 106.578 17.5859C106.578 17.8672 106.594 18.125 106.625 18.3594C106.656 18.5938 106.852 18.7344 107.211 18.7812C107.57 18.7812 107.906 18.7109 108.219 18.5703C108.531 18.4297 108.836 18.2812 109.133 18.125C109.43 17.9531 109.727 17.7969 110.023 17.6562C110.336 17.5156 110.672 17.4453 111.031 17.4453C111.031 17.8203 110.867 18.1641 110.539 18.4766C110.211 18.7891 109.812 19.0625 109.344 19.2969C108.891 19.5312 108.422 19.7109 107.938 19.8359C107.453 19.9609 107.055 20.0234 106.742 20.0234C106.43 20.0234 106.148 19.9609 105.898 19.8359C105.648 19.7109 105.438 19.5469 105.266 19.3438C105.109 19.125 104.984 18.875 104.891 18.5938C104.812 18.3125 104.773 18.0234 104.773 17.7266ZM118.695 32.4453C118.695 31.5547 118.852 30.7578 119.164 30.0547C119.461 29.3516 119.859 28.6953 120.359 28.0859C120.859 27.4922 121.43 26.9375 122.07 26.4219C122.711 25.9219 123.367 25.4297 124.039 24.9453C124.711 24.4766 125.367 24 126.008 23.5156C126.648 23.0312 127.219 22.5156 127.719 21.9688C128.219 21.4219 128.617 20.8281 128.914 20.1875C129.227 19.5469 129.383 18.8359 129.383 18.0547C129.383 18.0234 129.383 17.9531 129.383 17.8438C129.383 17.7188 129.375 17.6406 129.359 17.6094C129.25 17.7031 129.039 17.8438 128.727 18.0312C128.414 18.2031 128.078 18.3906 127.719 18.5938C127.375 18.7812 127.039 18.9531 126.711 19.1094C126.383 19.2656 126.148 19.3672 126.008 19.4141C125.992 19.4141 125.93 19.4219 125.82 19.4375C125.727 19.4531 125.609 19.4688 125.469 19.4844C125.344 19.5 125.219 19.5156 125.094 19.5312C124.969 19.5312 124.867 19.5312 124.789 19.5312C124.086 19.4062 123.617 19.1641 123.383 18.8047C123.148 18.4297 123.086 17.9922 123.195 17.4922C123.305 16.9922 123.547 16.4609 123.922 15.8984C124.312 15.3203 124.773 14.7734 125.305 14.2578C125.852 13.7266 126.438 13.2578 127.062 12.8516C127.703 12.4297 128.32 12.1328 128.914 11.9609C129.523 11.7734 130.078 11.7344 130.578 11.8438C131.094 11.9375 131.492 12.2422 131.773 12.7578C131.867 13.4141 131.867 14.0312 131.773 14.6094C131.68 15.1719 131.555 15.7266 131.398 16.2734C131.242 16.8203 131.086 17.375 130.93 17.9375C130.773 18.4844 130.68 19.0859 130.648 19.7422H130.859C130.953 19.6484 131.109 19.4844 131.328 19.25C131.562 19.0156 131.805 18.7734 132.055 18.5234C132.32 18.2578 132.57 18.0156 132.805 17.7969C133.039 17.5625 133.203 17.3984 133.297 17.3047C133.344 17.2578 133.438 17.1953 133.578 17.1172C133.734 17.0391 133.844 17 133.906 17V17.0703V17.1172C133.906 17.1328 133.914 17.1406 133.93 17.1406C133.93 17.7031 133.766 18.2188 133.438 18.6875C133.125 19.1562 132.742 19.5938 132.289 20C131.836 20.4062 131.367 20.7812 130.883 21.125C130.398 21.4844 129.992 21.8281 129.664 22.1562C129.398 22.7031 129.109 23.3828 128.797 24.1953C128.484 25.0234 128.141 25.8984 127.766 26.8203C127.391 27.7578 126.969 28.7031 126.5 29.6562C126.047 30.625 125.531 31.5156 124.953 32.3281C124.391 33.1406 123.766 33.8359 123.078 34.4141C122.391 35.0078 121.625 35.3906 120.781 35.5625C120.375 35.5625 120.039 35.4609 119.773 35.2578C119.492 35.0547 119.273 34.7969 119.117 34.4844C118.961 34.1875 118.852 33.8516 118.789 33.4766C118.727 33.1172 118.695 32.7734 118.695 32.4453ZM119.938 33.7109C120.062 34.0078 120.211 34.1875 120.383 34.25C120.555 34.3125 120.75 34.3438 120.969 34.3438C121.375 34.3438 121.82 34.1328 122.305 33.7109C122.789 33.2891 123.273 32.7422 123.758 32.0703C124.258 31.4141 124.734 30.6797 125.188 29.8672C125.641 29.0547 126.039 28.2656 126.383 27.5C126.742 26.7344 127.023 26.0312 127.227 25.3906C127.445 24.7656 127.555 24.2969 127.555 23.9844C127.555 23.9531 127.547 23.8984 127.531 23.8203C127.531 23.7578 127.531 23.7109 127.531 23.6797C127.484 23.7109 127.375 23.7578 127.203 23.8203C127.047 23.8984 126.953 23.9531 126.922 23.9844C126.266 24.4688 125.523 25 124.695 25.5781C123.883 26.1719 123.125 26.8203 122.422 27.5234C121.703 28.2266 121.102 28.9844 120.617 29.7969C120.133 30.625 119.891 31.5156 119.891 32.4688C119.891 32.5156 119.891 32.6016 119.891 32.7266C119.891 32.8516 119.898 32.9766 119.914 33.1016C119.914 33.2266 119.922 33.3438 119.938 33.4531C119.938 33.5781 119.938 33.6641 119.938 33.7109ZM130.273 13.0391C130.023 13.0391 129.695 13.125 129.289 13.2969C128.883 13.4531 128.445 13.6719 127.977 13.9531C127.523 14.2344 127.062 14.5547 126.594 14.9141C126.125 15.2734 125.695 15.6484 125.305 16.0391C124.93 16.4297 124.625 16.8203 124.391 17.2109C124.156 17.6016 124.039 17.9609 124.039 18.2891C124.367 18.2891 124.766 18.2266 125.234 18.1016C125.703 17.9609 126.188 17.7812 126.688 17.5625C127.203 17.3281 127.711 17.0625 128.211 16.7656C128.711 16.4531 129.156 16.125 129.547 15.7812C129.953 15.4375 130.281 15.0859 130.531 14.7266C130.781 14.3672 130.906 14.0156 130.906 13.6719C130.906 13.25 130.695 13.0391 130.273 13.0391ZM133.812 18.4766C133.953 17.5859 134.219 16.7656 134.609 16.0156C135 15.2656 135.445 14.6172 135.945 14.0703C136.461 13.5078 137.016 13.0469 137.609 12.6875C138.203 12.3281 138.781 12.1016 139.344 12.0078C139.906 11.8984 140.422 11.9219 140.891 12.0781C141.375 12.2344 141.766 12.5469 142.062 13.0156C142.062 13.375 141.977 13.7188 141.805 14.0469C141.648 14.375 141.469 14.7031 141.266 15.0312C141.078 15.3594 140.898 15.6953 140.727 16.0391C140.57 16.3828 140.492 16.75 140.492 17.1406C140.492 17.5469 140.578 17.875 140.75 18.125C140.938 18.3594 141.258 18.4766 141.711 18.4766C142.086 18.4766 142.445 18.4219 142.789 18.3125C143.148 18.2031 143.508 18.1484 143.867 18.1484C143.93 18.1484 144.031 18.1562 144.172 18.1719C144.328 18.1719 144.43 18.1719 144.477 18.1719C144.289 18.4375 144.047 18.6641 143.75 18.8516C143.453 19.0391 143.141 19.2031 142.812 19.3438C142.484 19.4688 142.141 19.5625 141.781 19.625C141.438 19.6875 141.117 19.7188 140.82 19.7188C140.539 19.7188 140.289 19.6562 140.07 19.5312C139.852 19.4062 139.664 19.2422 139.508 19.0391C139.352 18.8359 139.227 18.6094 139.133 18.3594C139.055 18.0938 139.016 17.8359 139.016 17.5859C138.781 17.8516 138.523 18.1328 138.242 18.4297C137.977 18.7109 137.688 18.9688 137.375 19.2031C137.078 19.4375 136.75 19.6328 136.391 19.7891C136.047 19.9453 135.688 20.0234 135.312 20.0234C134.906 20.0234 134.555 19.875 134.258 19.5781C133.961 19.2656 133.812 18.8984 133.812 18.4766ZM135.359 17.75C135.359 17.875 135.359 18.0156 135.359 18.1719C135.375 18.3281 135.477 18.4297 135.664 18.4766C136.055 18.3828 136.5 18.1797 137 17.8672C137.5 17.5391 137.969 17.1641 138.406 16.7422C138.844 16.3047 139.211 15.8438 139.508 15.3594C139.805 14.8594 139.953 14.3828 139.953 13.9297C139.953 13.8984 139.945 13.8516 139.93 13.7891C139.93 13.7109 139.93 13.6562 139.93 13.625C139.398 13.625 138.859 13.7344 138.312 13.9531C137.766 14.1719 137.273 14.4766 136.836 14.8672C136.398 15.2422 136.039 15.6797 135.758 16.1797C135.492 16.6797 135.359 17.2031 135.359 17.75ZM143.656 17.8672C143.656 17.7578 143.664 17.5938 143.68 17.375C143.711 17.1406 143.742 16.9141 143.773 16.6953C143.805 16.4766 143.836 16.2812 143.867 16.1094C143.898 15.9219 143.93 15.8047 143.961 15.7578L148.227 7.22656C148.289 7.10156 148.406 6.92969 148.578 6.71094C148.766 6.47656 148.961 6.24219 149.164 6.00781C149.383 5.75781 149.594 5.53125 149.797 5.32812C150.016 5.10937 150.195 4.9375 150.336 4.8125C150.445 4.84375 150.523 4.89844 150.57 4.97656C150.617 5.05469 150.648 5.14844 150.664 5.25781C150.68 5.35156 150.68 5.44531 150.664 5.53906C150.664 5.63281 150.664 5.71094 150.664 5.77344C150.664 5.85156 150.664 5.96094 150.664 6.10156C150.664 6.24219 150.656 6.3125 150.641 6.3125C150.484 6.73438 150.242 7.23438 149.914 7.8125C149.586 8.39062 149.219 9.00781 148.812 9.66406C148.406 10.3203 147.984 11.0078 147.547 11.7266C147.125 12.4297 146.734 13.1328 146.375 13.8359C146.031 14.5234 145.742 15.1875 145.508 15.8281C145.289 16.4688 145.18 17.0547 145.18 17.5859C145.18 17.8672 145.258 18.0938 145.414 18.2656C145.586 18.4219 145.766 18.5625 145.953 18.6875C146.141 18.8125 146.312 18.9375 146.469 19.0625C146.641 19.1875 146.727 19.3594 146.727 19.5781C146.727 19.7188 146.664 19.8281 146.539 19.9062C146.414 19.9688 146.266 20 146.094 20C145.438 20 144.867 19.8203 144.383 19.4609C143.898 19.0859 143.656 18.5547 143.656 17.8672ZM149.867 18.7812C149.602 18.1875 149.484 17.6094 149.516 17.0469C149.547 16.4688 149.672 15.9297 149.891 15.4297C150.125 14.9141 150.422 14.4531 150.781 14.0469C151.156 13.625 151.555 13.2656 151.977 12.9688C152.398 12.6562 152.82 12.4219 153.242 12.2656C153.68 12.1094 154.062 12.0469 154.391 12.0781C154.719 12.0938 154.977 12.2109 155.164 12.4297C155.352 12.6484 155.414 12.9844 155.352 13.4375C155.352 14.0469 155.156 14.5781 154.766 15.0312C154.391 15.4844 153.969 15.8906 153.5 16.25C153.047 16.6094 152.625 16.9375 152.234 17.2344C151.859 17.5156 151.672 17.7812 151.672 18.0312C151.672 18.1719 151.75 18.2812 151.906 18.3594C152.078 18.4375 152.273 18.5 152.492 18.5469C152.711 18.5781 152.93 18.6016 153.148 18.6172C153.367 18.6328 153.523 18.6484 153.617 18.6641C155.086 18.3516 156.188 18.1641 156.922 18.1016C157.656 18.0234 158.117 18.0312 158.305 18.125C158.492 18.2031 158.453 18.3359 158.188 18.5234C157.938 18.6953 157.547 18.8828 157.016 19.0859C156.484 19.2734 155.867 19.4453 155.164 19.6016C154.461 19.7578 153.766 19.8516 153.078 19.8828C152.391 19.8984 151.75 19.8281 151.156 19.6719C150.578 19.5156 150.148 19.2188 149.867 18.7812ZM153.969 13.4375C153.656 13.4375 153.359 13.5234 153.078 13.6953C152.797 13.8672 152.539 14.0859 152.305 14.3516C152.086 14.6016 151.898 14.8828 151.742 15.1953C151.586 15.4922 151.469 15.7734 151.391 16.0391C151.422 16.0547 151.445 16.0625 151.461 16.0625H151.531C151.75 16.0625 152 15.9688 152.281 15.7812C152.562 15.5938 152.828 15.3672 153.078 15.1016C153.328 14.8203 153.539 14.5312 153.711 14.2344C153.883 13.9375 153.969 13.6719 153.969 13.4375ZM162.969 18.1953C162.969 17.7266 163.062 17.2969 163.25 16.9062C163.453 16.5 163.672 16.1172 163.906 15.7578C164.141 15.3984 164.352 15.0391 164.539 14.6797C164.742 14.3203 164.844 13.9375 164.844 13.5312C164.844 13.4375 164.836 13.3281 164.82 13.2031C164.82 13.0625 164.805 12.9297 164.773 12.8047C164.758 12.6797 164.711 12.5781 164.633 12.5C164.57 12.4062 164.484 12.3594 164.375 12.3594C164.359 12.3594 164.328 12.3672 164.281 12.3828C164.25 12.3828 164.234 12.3906 164.234 12.4062C164.016 12.7031 163.75 13.0391 163.438 13.4141C163.141 13.7734 162.82 14.1328 162.477 14.4922C162.133 14.8516 161.797 15.1953 161.469 15.5234C161.141 15.8516 160.844 16.125 160.578 16.3438C160.391 16.5156 160.133 16.75 159.805 17.0469C159.492 17.3438 159.172 17.6406 158.844 17.9375C158.531 18.2188 158.25 18.4688 158 18.6875C157.766 18.9062 157.633 19.0156 157.602 19.0156L156.523 18.1016C156.664 18.1016 156.805 18.0703 156.945 18.0078C157.07 17.9453 157.195 17.875 157.32 17.7969C158.258 17.1719 159.102 16.4531 159.852 15.6406C160.617 14.8281 161.367 13.9531 162.102 13.0156C162.133 12.9688 162.211 12.8359 162.336 12.6172C162.477 12.3828 162.625 12.125 162.781 11.8438C162.938 11.5469 163.094 11.2578 163.25 10.9766C163.406 10.6797 163.523 10.4453 163.602 10.2734C163.695 10.0703 163.75 9.90625 163.766 9.78125C163.797 9.65625 163.82 9.5625 163.836 9.5C163.867 9.42188 163.914 9.36719 163.977 9.33594C164.039 9.30469 164.172 9.28906 164.375 9.28906C164.406 9.28906 164.477 9.29688 164.586 9.3125C164.711 9.32812 164.789 9.34375 164.82 9.35938C165.023 9.78125 165.203 10.1562 165.359 10.4844C165.516 10.8125 165.648 11.125 165.758 11.4219C165.867 11.7031 165.945 11.9922 165.992 12.2891C166.055 12.5859 166.086 12.9141 166.086 13.2734C165.883 13.7891 165.656 14.3203 165.406 14.8672C165.156 15.3984 164.945 15.9062 164.773 16.3906C164.602 16.875 164.492 17.3125 164.445 17.7031C164.414 18.0938 164.5 18.4062 164.703 18.6406C164.922 18.8594 165.281 18.9766 165.781 18.9922C166.297 19.0078 167.023 18.875 167.961 18.5938C168.211 18.7188 168.234 18.875 168.031 19.0625C167.828 19.2344 167.516 19.3984 167.094 19.5547C166.688 19.7109 166.234 19.8438 165.734 19.9531C165.25 20.0469 164.844 20.0703 164.516 20.0234C164.219 20.0234 163.969 19.9766 163.766 19.8828C163.578 19.7734 163.422 19.6328 163.297 19.4609C163.188 19.2891 163.102 19.0938 163.039 18.875C162.992 18.6562 162.969 18.4297 162.969 18.1953ZM166.766 18.4766C166.766 18.2578 166.789 18.0703 166.836 17.9141C166.883 17.7422 166.969 17.5234 167.094 17.2578C167.203 17.1016 167.398 16.8047 167.68 16.3672C167.977 15.9297 168.281 15.4688 168.594 14.9844C168.922 14.5 169.227 14.0469 169.508 13.625C169.805 13.1875 170.008 12.8828 170.117 12.7109C170.258 12.5078 170.367 12.3984 170.445 12.3828C170.523 12.3672 170.672 12.3594 170.891 12.3594C171.031 12.3594 171.18 12.3672 171.336 12.3828C171.508 12.3984 171.617 12.5078 171.664 12.7109C171.445 13.2422 171.148 13.75 170.773 14.2344C170.414 14.7031 170.055 15.1719 169.695 15.6406C169.352 16.1094 169.047 16.5938 168.781 17.0938C168.516 17.5781 168.383 18.1016 168.383 18.6641C168.445 18.6641 168.539 18.6719 168.664 18.6875C168.805 18.7031 168.953 18.7188 169.109 18.7344C169.266 18.75 169.406 18.7656 169.531 18.7812C169.672 18.7969 169.773 18.7969 169.836 18.7812C169.93 18.7656 170.086 18.7344 170.305 18.6875C170.539 18.625 170.781 18.5625 171.031 18.5C171.297 18.4375 171.547 18.375 171.781 18.3125C172.016 18.25 172.18 18.2031 172.273 18.1719C172.273 18.2031 172.273 18.2578 172.273 18.3359C172.289 18.3984 172.297 18.4453 172.297 18.4766C172.297 18.7891 172.148 19.0469 171.852 19.25C171.57 19.4531 171.234 19.6172 170.844 19.7422C170.469 19.8516 170.078 19.9297 169.672 19.9766C169.281 20.0078 168.977 20.0234 168.758 20.0234C168.523 20.0234 168.281 20 168.031 19.9531C167.797 19.8906 167.586 19.7969 167.398 19.6719C167.211 19.5469 167.055 19.3906 166.93 19.2031C166.82 19 166.766 18.7578 166.766 18.4766ZM173.586 4.74219C173.789 4.74219 173.977 4.75 174.148 4.76562C174.32 4.78125 174.469 4.82031 174.594 4.88281C174.719 4.94531 174.82 5.03906 174.898 5.16406C174.977 5.28906 175.016 5.46094 175.016 5.67969C175.016 5.77344 175.016 5.875 175.016 5.98438C175.016 6.09375 175 6.20313 174.969 6.3125C174.953 6.40625 174.914 6.49219 174.852 6.57031C174.789 6.63281 174.688 6.66406 174.547 6.66406C174.328 6.66406 174.148 6.58594 174.008 6.42969C173.883 6.27344 173.789 6.09375 173.727 5.89062C173.664 5.67187 173.625 5.45313 173.609 5.23438C173.594 5.01562 173.586 4.85156 173.586 4.74219ZM172.32 18.4766C172.32 18.2578 172.344 18.0703 172.391 17.9141C172.438 17.7422 172.523 17.5234 172.648 17.2578C172.758 17.1016 172.953 16.8047 173.234 16.3672C173.531 15.9297 173.836 15.4688 174.148 14.9844C174.477 14.5 174.781 14.0469 175.062 13.625C175.359 13.1875 175.562 12.8828 175.672 12.7109C175.812 12.5078 175.922 12.3984 176 12.3828C176.078 12.3672 176.227 12.3594 176.445 12.3594C176.586 12.3594 176.734 12.3672 176.891 12.3828C177.062 12.3984 177.172 12.5078 177.219 12.7109C177 13.2422 176.703 13.75 176.328 14.2344C175.969 14.7031 175.609 15.1719 175.25 15.6406C174.906 16.1094 174.602 16.5938 174.336 17.0938C174.07 17.5781 173.938 18.1016 173.938 18.6641C174 18.6641 174.094 18.6719 174.219 18.6875C174.359 18.7031 174.508 18.7188 174.664 18.7344C174.82 18.75 174.961 18.7656 175.086 18.7812C175.227 18.7969 175.328 18.7969 175.391 18.7812C175.484 18.7656 175.641 18.7344 175.859 18.6875C176.094 18.625 176.336 18.5625 176.586 18.5C176.852 18.4375 177.102 18.375 177.336 18.3125C177.57 18.25 177.734 18.2031 177.828 18.1719C177.828 18.2031 177.828 18.2578 177.828 18.3359C177.844 18.3984 177.852 18.4453 177.852 18.4766C177.852 18.7891 177.703 19.0469 177.406 19.25C177.125 19.4531 176.789 19.6172 176.398 19.7422C176.023 19.8516 175.633 19.9297 175.227 19.9766C174.836 20.0078 174.531 20.0234 174.312 20.0234C174.078 20.0234 173.836 20 173.586 19.9531C173.352 19.8906 173.141 19.7969 172.953 19.6719C172.766 19.5469 172.609 19.3906 172.484 19.2031C172.375 19 172.32 18.7578 172.32 18.4766ZM179.141 4.74219C179.344 4.74219 179.531 4.75 179.703 4.76562C179.875 4.78125 180.023 4.82031 180.148 4.88281C180.273 4.94531 180.375 5.03906 180.453 5.16406C180.531 5.28906 180.57 5.46094 180.57 5.67969C180.57 5.77344 180.57 5.875 180.57 5.98438C180.57 6.09375 180.555 6.20313 180.523 6.3125C180.508 6.40625 180.469 6.49219 180.406 6.57031C180.344 6.63281 180.242 6.66406 180.102 6.66406C179.883 6.66406 179.703 6.58594 179.562 6.42969C179.438 6.27344 179.344 6.09375 179.281 5.89062C179.219 5.67187 179.18 5.45313 179.164 5.23438C179.148 5.01562 179.141 4.85156 179.141 4.74219Z" fill="white"/>
<path d="M10 4V24" stroke="white" stroke-width="2"/>
<path d="M0 14L20 14" stroke="white" stroke-width="2"/>
</svg>
